<svg width="512" height="512" viewBox="0 0 512 512" fill="none" xmlns="http://www.w3.org/2000/svg">
<g clip-path="url(#clip0_118_1426)">
<path opacity="0.999" fill-rule="evenodd" clip-rule="evenodd" d="M232.5 -0.5C247.833 -0.5 263.167 -0.5 278.5 -0.5C331.045 5.00502 377.711 24.3384 418.5 57.5C415.833 57.5 413.167 57.5 410.5 57.5C395.284 55.9056 385.117 62.2389 380 76.5C378.798 79.7735 377.798 83.1069 377 86.5C375.343 100.83 376.676 114.83 381 128.5C383.565 136.906 389.065 141.906 397.5 143.5C401.968 147.734 407.301 150.401 413.5 151.5C413.5 152.5 413.5 153.5 413.5 154.5C413.5 155.833 413.5 157.167 413.5 158.5C402.826 161.675 395.992 168.675 393 179.5C392.21 196.198 392.377 212.865 393.5 229.5C392.297 240.553 395.297 250.22 402.5 258.5C402.5 302.5 402.5 346.5 402.5 390.5C400.584 393.723 400.251 397.057 401.5 400.5C362.337 401.499 323.004 401.832 283.5 401.5C286.808 395.599 285.475 390.765 279.5 387C277.35 385.589 275.016 384.755 272.5 384.5C272.5 335.833 272.5 287.167 272.5 238.5C274.86 234.439 276.694 230.106 278 225.5C278.667 209.833 278.667 194.167 278 178.5C274.347 168.348 267.514 161.348 257.5 157.5C257.5 156.5 257.5 155.5 257.5 154.5C257.5 153.5 257.5 152.5 257.5 151.5C266.664 149.662 273.997 144.995 279.5 137.5C280.6 136.395 281.267 135.062 281.5 133.5C283.277 130.495 284.277 127.162 284.5 123.5C286.948 123.915 288.281 122.915 288.5 120.5C288.547 119 287.881 118 286.5 117.5C285.668 109.187 285.168 100.853 285 92.5C284.151 89.4786 283.317 86.4786 282.5 83.5C288.047 76.1465 290.047 67.9798 288.5 59C272.262 57.5298 255.929 57.0298 239.5 57.5C225.206 56.0576 215.039 61.7243 209 74.5C203.107 92.4507 203.107 110.451 209 128.5C211.851 136.522 217.351 141.522 225.5 143.5C230.604 147.375 235.937 150.709 241.5 153.5C241.5 155.167 241.5 156.833 241.5 158.5C230.852 161.649 224.019 168.649 221 179.5C220.241 196.187 220.408 212.854 221.5 229.5C220.104 240.927 223.437 250.594 231.5 258.5C231.5 302.167 231.5 345.833 231.5 389.5C228.761 392.855 228.095 396.522 229.5 400.5C225.702 401.483 221.702 401.817 217.5 401.5C182.5 401.5 147.5 401.5 112.5 401.5C114.213 391.953 110.213 386.286 100.5 384.5C100.5 335.833 100.5 287.167 100.5 238.5C102.847 235.139 104.681 231.472 106 227.5C106.667 211.5 106.667 195.5 106 179.5C103.205 169.538 97.0381 162.538 87.5001 158.5C86.2858 156.192 86.2858 153.859 87.5001 151.5C95.9497 149.284 102.616 144.617 107.5 137.5C108.6 136.395 109.267 135.062 109.5 133.5C111.277 130.495 112.277 127.162 112.5 123.5C117.89 122.75 118.557 120.75 114.5 117.5C113.668 108.518 113.168 99.5184 113 90.5C111.878 88.5932 111.045 86.5932 110.5 84.5C115.939 77.0814 118.105 68.748 117 59.5C116.5 59 116 58.5 115.5 58C107.841 57.5003 100.174 57.3336 92.5001 57.5C133.289 24.3384 179.955 5.00502 232.5 -0.5Z" fill="#7CC7FA"/>
<path opacity="0.989" fill-rule="evenodd" clip-rule="evenodd" d="M67.5001 57.5C69.6311 58.3138 71.9645 58.8138 74.5001 59C75.8334 60.3333 75.8334 61.6667 74.5001 63C62.5959 65.7327 62.7626 68.2327 75.0001 70.5C75.6839 71.7839 75.5172 72.9505 74.5001 74C72.8334 74.3333 71.1668 74.6667 69.5001 75C70.8614 76.5843 71.5281 78.4176 71.5001 80.5C73.6349 80.147 74.9682 80.9803 75.5001 83C73.1157 86.5556 73.1157 90.2223 75.5001 94C75.2569 94.9021 74.9235 95.7354 74.5001 96.5C74.6634 98.8568 74.4967 101.19 74.0001 103.5C65.174 103.649 61.5073 107.983 63.0001 116.5C64.8874 118.886 67.3874 120.053 70.5001 120C71.0586 120.725 71.3919 121.558 71.5001 122.5C70.0389 127.42 68.0389 132.086 65.5001 136.5C62.6159 140.049 58.9492 142.382 54.5001 143.5C48.7481 143.037 44.2481 140.371 41.0001 135.5C38.9134 131.678 36.7467 128.011 34.5001 124.5C29.1697 104.765 31.003 85.7647 40.0001 67.5C42.1668 65.3333 44.3334 63.1667 46.5001 61C53.1989 58.1322 60.1989 56.9655 67.5001 57.5Z" fill="#27273A"/>
<path fill-rule="evenodd" clip-rule="evenodd" d="M67.5002 57.5C75.8335 57.5 84.1669 57.5 92.5002 57.5C100.174 57.3336 107.841 57.5003 115.5 58C116 58.5 116.5 59 117 59.5C118.105 68.748 115.939 77.0814 110.5 84.5C100.532 94.2671 88.5324 98.2671 74.5002 96.5C74.9236 95.7354 75.257 94.9021 75.5002 94C73.1158 90.2223 73.1158 86.5556 75.5002 83C74.9683 80.9803 73.635 80.147 71.5002 80.5C71.5282 78.4176 70.8615 76.5843 69.5002 75C71.1669 74.6667 72.8335 74.3333 74.5002 74C75.5173 72.9505 75.684 71.7839 75.0002 70.5C62.7627 68.2327 62.596 65.7327 74.5002 63C75.8335 61.6667 75.8335 60.3333 74.5002 59C71.9646 58.8138 69.6312 58.3138 67.5002 57.5Z" fill="#33324C"/>
<path fill-rule="evenodd" clip-rule="evenodd" d="M239.5 57.5C241.631 58.3138 243.964 58.8138 246.5 59C247.833 60.3333 247.833 61.6667 246.5 63C244.167 63.3333 241.833 63.6667 239.5 64C236.833 65.6667 236.833 67.3333 239.5 69C242.095 69.2256 244.595 69.7256 247 70.5C247.332 73.6903 245.832 75.6903 242.5 76.5C243.246 77.7362 243.579 79.0695 243.5 80.5C245.635 80.147 246.968 80.9803 247.5 83C244.833 86.6667 244.833 90.3333 247.5 94C247.257 94.9021 246.923 95.7354 246.5 96.5C246.663 98.8568 246.497 101.19 246 103.5C239.577 103.454 235.411 106.454 233.5 112.5C234.538 117.372 237.538 119.872 242.5 120C243.059 120.725 243.392 121.558 243.5 122.5C242.373 126.75 240.706 130.75 238.5 134.5C235.545 139.45 231.212 142.45 225.5 143.5C217.351 141.522 211.851 136.522 209 128.5C203.107 110.451 203.107 92.4507 209 74.5C215.039 61.7243 225.206 56.0576 239.5 57.5Z" fill="#9E4830"/>
<path fill-rule="evenodd" clip-rule="evenodd" d="M239.5 57.5C255.929 57.0298 272.262 57.5298 288.5 59C290.047 67.9798 288.047 76.1465 282.5 83.5C272.966 94.1268 260.966 98.4601 246.5 96.5C246.923 95.7354 247.257 94.9021 247.5 94C244.833 90.3333 244.833 86.6667 247.5 83C246.968 80.9803 245.635 80.147 243.5 80.5C243.579 79.0695 243.246 77.7362 242.5 76.5C245.832 75.6903 247.332 73.6903 247 70.5C244.595 69.7256 242.095 69.2256 239.5 69C236.833 67.3333 236.833 65.6667 239.5 64C241.833 63.6667 244.167 63.3333 246.5 63C247.833 61.6667 247.833 60.3333 246.5 59C243.964 58.8138 241.631 58.3138 239.5 57.5Z" fill="#A75C3B"/>
<path fill-rule="evenodd" clip-rule="evenodd" d="M410.5 57.5C412.969 58.3171 415.635 58.8171 418.5 59C419.833 60.3333 419.833 61.6667 418.5 63C416.167 63.3333 413.833 63.6667 411.5 64C409.475 65.194 409.141 66.694 410.5 68.5C413.107 69.3184 415.774 69.8184 418.5 70C419.833 71.3333 419.833 72.6667 418.5 74C416.744 74.2022 415.078 74.7022 413.5 75.5C414.774 78.705 416.774 81.205 419.5 83C416.833 86.6667 416.833 90.3333 419.5 94C419.257 94.9021 418.923 95.7354 418.5 96.5C418.663 98.8568 418.497 101.19 418 103.5C412.933 103.367 408.933 105.367 406 109.5C405.125 115.962 407.959 119.462 414.5 120C415.022 120.561 415.355 121.228 415.5 122C414.16 127.171 412.16 132.004 409.5 136.5C406.413 140.377 402.413 142.711 397.5 143.5C389.065 141.906 383.565 136.906 381 128.5C376.676 114.83 375.343 100.83 377 86.5C377.798 83.1069 378.798 79.7735 380 76.5C385.117 62.2389 395.284 55.9056 410.5 57.5Z" fill="#DCAF4B"/>
<path opacity="0.995" fill-rule="evenodd" clip-rule="evenodd" d="M410.5 57.5C413.167 57.5 415.833 57.5 418.5 57.5C432.504 57.3334 446.504 57.5001 460.5 58C462.993 67.7223 460.993 76.5556 454.5 84.5C444.519 94.2713 432.519 98.2713 418.5 96.5C418.923 95.7354 419.257 94.9021 419.5 94C416.833 90.3333 416.833 86.6667 419.5 83C416.774 81.205 414.774 78.705 413.5 75.5C415.078 74.7022 416.744 74.2022 418.5 74C419.833 72.6667 419.833 71.3333 418.5 70C415.774 69.8184 413.107 69.3184 410.5 68.5C409.141 66.694 409.475 65.194 411.5 64C413.833 63.6667 416.167 63.3333 418.5 63C419.833 61.6667 419.833 60.3333 418.5 59C415.635 58.8171 412.969 58.3171 410.5 57.5Z" fill="#F5C753"/>
<path fill-rule="evenodd" clip-rule="evenodd" d="M110.5 84.5C111.045 86.5932 111.878 88.5932 113 90.5C113.168 99.5184 113.668 108.518 114.5 117.5C118.557 120.75 117.89 122.75 112.5 123.5C112.277 127.162 111.277 130.495 109.5 133.5C107.636 132.207 105.636 132.207 103.5 133.5C102.258 136.93 103.591 138.263 107.5 137.5C102.616 144.617 95.9498 149.284 87.5002 151.5C86.2859 153.859 86.2859 156.192 87.5002 158.5C86.9648 163.222 84.6314 166.889 80.5002 169.5C79.5002 169.5 78.5002 169.5 77.5002 169.5C75.9726 168.691 74.3059 168.024 72.5002 167.5C70.1326 165.044 69.1326 162.044 69.5002 158.5C69.5002 157.167 69.5002 155.833 69.5002 154.5C71.7037 157.197 74.5371 158.863 78.0002 159.5C83.414 158.79 85.5807 155.957 84.5002 151C76.5323 148.185 70.199 143.352 65.5002 136.5C68.039 132.086 70.039 127.42 71.5002 122.5C71.392 121.558 71.0587 120.725 70.5002 120C67.3875 120.053 64.8875 118.886 63.0002 116.5C61.5074 107.983 65.1741 103.649 74.0002 103.5C74.4968 101.19 74.6635 98.8568 74.5002 96.5C88.5324 98.2671 100.532 94.2671 110.5 84.5Z" fill="#F8C4B9"/>
<path fill-rule="evenodd" clip-rule="evenodd" d="M282.5 83.5C283.317 86.4786 284.151 89.4786 285 92.5C285.168 100.853 285.668 109.187 286.5 117.5C287.881 118 288.547 119 288.5 120.5C288.281 122.915 286.948 123.915 284.5 123.5C284.277 127.162 283.277 130.495 281.5 133.5C279.44 132.189 277.274 132.189 275 133.5C274.362 136.93 275.862 138.263 279.5 137.5C273.997 144.995 266.664 149.662 257.5 151.5C250.159 149.329 243.993 145.329 239 139.5C238.506 137.866 238.34 136.199 238.5 134.5C240.706 130.75 242.373 126.75 243.5 122.5C243.392 121.558 243.059 120.725 242.5 120C237.538 119.872 234.538 117.372 233.5 112.5C235.411 106.454 239.577 103.454 246 103.5C246.497 101.19 246.663 98.8568 246.5 96.5C260.966 98.4601 272.966 94.1268 282.5 83.5Z" fill="#F9C5B9"/>
<path opacity="0.999" fill-rule="evenodd" clip-rule="evenodd" d="M454.5 84.5C456.892 88.826 458.225 93.4926 458.5 98.5C457.183 104.678 457.183 111.012 458.5 117.5C460.657 118.966 460.99 120.8 459.5 123C458.552 123.483 457.552 123.649 456.5 123.5C456.253 126.854 455.253 129.854 453.5 132.5C451.473 132.338 449.473 132.505 447.5 133C446.62 134.356 446.286 135.856 446.5 137.5C447.833 137.5 449.167 137.5 450.5 137.5C445.7 145.273 438.7 149.939 429.5 151.5C420.963 148.908 414.296 143.908 409.5 136.5C412.16 132.004 414.16 127.171 415.5 122C415.355 121.228 415.022 120.561 414.5 120C407.959 119.462 405.125 115.962 406 109.5C408.933 105.367 412.933 103.367 418 103.5C418.497 101.19 418.663 98.8568 418.5 96.5C432.519 98.2713 444.519 94.2713 454.5 84.5Z" fill="#FAC5B9"/>
<path fill-rule="evenodd" clip-rule="evenodd" d="M102.5 97.5C104.936 97.317 107.103 97.9837 109 99.5C109.667 103.833 109.667 108.167 109 112.5C106 116.5 103 116.5 100 112.5C99.3333 108.5 99.3333 104.5 100 100.5C101.045 99.6266 101.878 98.6266 102.5 97.5Z" fill="#37354E"/>
<path fill-rule="evenodd" clip-rule="evenodd" d="M274.5 97.5C277.368 97.085 279.535 98.085 281 100.5C281.667 104.5 281.667 108.5 281 112.5C277.952 116.482 274.952 116.482 272 112.5C271.333 108.5 271.333 104.5 272 100.5C272.698 99.3094 273.531 98.3094 274.5 97.5Z" fill="#3B3851"/>
<path fill-rule="evenodd" clip-rule="evenodd" d="M446.5 97.5C449.325 97.0807 451.491 98.0807 453 100.5C453.667 104.5 453.667 108.5 453 112.5C450.374 116.072 447.374 116.405 444 113.5C443.333 108.833 443.333 104.167 444 99.5C444.995 98.9341 445.828 98.2674 446.5 97.5Z" fill="#3D3A52"/>
<path opacity="0.996" fill-rule="evenodd" clip-rule="evenodd" d="M458.5 98.5C488.714 138.13 506.381 182.797 511.5 232.5C511.5 247.833 511.5 263.167 511.5 278.5C507.022 323.942 491.689 365.275 465.5 402.5C462.359 401.679 459.025 401.179 455.5 401C458.122 395.49 456.789 390.823 451.5 387C449.35 385.589 447.016 384.755 444.5 384.5C444.5 335.833 444.5 287.167 444.5 238.5C446.855 234.449 448.688 230.116 450 225.5C450.667 209.833 450.667 194.167 450 178.5C446.761 169.096 440.595 162.429 431.5 158.5C430.828 159.949 430.161 161.282 429.5 162.5C429.5 159.833 429.5 157.167 429.5 154.5C429.5 153.5 429.5 152.5 429.5 151.5C438.7 149.939 445.7 145.273 450.5 137.5C452.25 136.341 453.25 134.674 453.5 132.5C455.253 129.854 456.253 126.854 456.5 123.5C457.552 123.649 458.552 123.483 459.5 123C460.99 120.8 460.657 118.966 458.5 117.5C457.183 111.012 457.183 104.678 458.5 98.5Z" fill="#7CC7FA"/>
<path fill-rule="evenodd" clip-rule="evenodd" d="M104.5 99.5C108.146 100.462 109.313 102.795 108 106.5C106.667 107.833 105.333 107.833 104 106.5C103.297 104.071 103.463 101.738 104.5 99.5Z" fill="#E2E2E5"/>
<path fill-rule="evenodd" clip-rule="evenodd" d="M276.5 99.5C277.496 99.4142 278.329 99.7476 279 100.5C279.497 102.81 279.663 105.143 279.5 107.5C278.178 107.67 277.011 107.337 276 106.5C275.297 104.071 275.463 101.738 276.5 99.5Z" fill="#EEEEF0"/>
<path fill-rule="evenodd" clip-rule="evenodd" d="M447.5 100.5C448.833 100.5 450.167 100.5 451.5 100.5C451.662 102.527 451.495 104.527 451 106.5C450 107.833 449 107.833 448 106.5C447.505 104.527 447.338 102.527 447.5 100.5Z" fill="#F9F8F9"/>
<path opacity="0.995" fill-rule="evenodd" clip-rule="evenodd" d="M34.5 124.5C36.7466 128.011 38.9133 131.678 41 135.5C44.248 140.371 48.748 143.037 54.5 143.5C58.4533 147.979 63.4533 150.645 69.5 151.5C69.5 152.5 69.5 153.5 69.5 154.5C69.5 155.833 69.5 157.167 69.5 158.5C60.0138 161.149 53.5138 167.149 50 176.5C48.1675 193.805 48.0008 211.138 49.5 228.5C48.2433 240.182 51.5767 250.182 59.5 258.5C59.5 302.167 59.5 345.833 59.5 389.5C57.3518 393.352 57.0184 397.352 58.5 401.5C53.9677 401.182 49.6344 401.515 45.5 402.5C19.3114 365.275 3.97803 323.942 -0.5 278.5C-0.5 263.167 -0.5 247.833 -0.5 232.5C3.52175 194.099 15.1884 158.099 34.5 124.5Z" fill="#7BC7FA"/>
<path fill-rule="evenodd" clip-rule="evenodd" d="M109.5 133.5C109.267 135.062 108.6 136.395 107.5 137.5C103.591 138.263 102.258 136.93 103.5 133.5C105.636 132.207 107.636 132.207 109.5 133.5Z" fill="#F5938E"/>
<path fill-rule="evenodd" clip-rule="evenodd" d="M281.5 133.5C281.267 135.062 280.6 136.395 279.5 137.5C275.862 138.263 274.362 136.93 275 133.5C277.274 132.189 279.44 132.189 281.5 133.5Z" fill="#F5948F"/>
<path fill-rule="evenodd" clip-rule="evenodd" d="M453.5 132.5C453.25 134.674 452.25 136.341 450.5 137.5C449.167 137.5 447.833 137.5 446.5 137.5C446.286 135.856 446.62 134.356 447.5 133C449.473 132.505 451.473 132.338 453.5 132.5Z" fill="#F5948F"/>
<path fill-rule="evenodd" clip-rule="evenodd" d="M65.5 136.5C70.1988 143.352 76.5321 148.185 84.5 151C85.5805 155.957 83.4138 158.79 78 159.5C74.5369 158.863 71.7035 157.197 69.5 154.5C69.5 153.5 69.5 152.5 69.5 151.5C63.4533 150.645 58.4533 147.979 54.5 143.5C58.9491 142.382 62.6158 140.049 65.5 136.5Z" fill="#F1ADA3"/>
<path fill-rule="evenodd" clip-rule="evenodd" d="M238.5 134.5C238.34 136.199 238.506 137.866 239 139.5C243.993 145.329 250.159 149.329 257.5 151.5C257.5 152.5 257.5 153.5 257.5 154.5C251.755 161.434 246.422 161.1 241.5 153.5C235.937 150.709 230.604 147.375 225.5 143.5C231.212 142.45 235.545 139.45 238.5 134.5Z" fill="#F2AEA4"/>
<path fill-rule="evenodd" clip-rule="evenodd" d="M409.5 136.5C414.296 143.908 420.963 148.908 429.5 151.5C429.5 152.5 429.5 153.5 429.5 154.5C424.167 161.167 418.833 161.167 413.5 154.5C413.5 153.5 413.5 152.5 413.5 151.5C407.301 150.401 401.968 147.734 397.5 143.5C402.413 142.711 406.413 140.377 409.5 136.5Z" fill="#F3AFA4"/>
<path fill-rule="evenodd" clip-rule="evenodd" d="M241.5 153.5C246.422 161.1 251.755 161.434 257.5 154.5C257.5 155.5 257.5 156.5 257.5 157.5C258.525 162.767 256.858 166.767 252.5 169.5C251.833 169.5 251.167 169.5 250.5 169.5C248.626 168.715 246.626 168.048 244.5 167.5C242.132 165.044 241.132 162.044 241.5 158.5C241.5 156.833 241.5 155.167 241.5 153.5Z" fill="#FBC5BA"/>
<path fill-rule="evenodd" clip-rule="evenodd" d="M413.5 154.5C418.833 161.167 424.167 161.167 429.5 154.5C429.5 157.167 429.5 159.833 429.5 162.5C428.956 165.7 427.29 168.033 424.5 169.5C423.5 169.5 422.5 169.5 421.5 169.5C420.081 168.549 418.415 168.216 416.5 168.5C414.022 165.671 413.022 162.338 413.5 158.5C413.5 157.167 413.5 155.833 413.5 154.5Z" fill="#F7C5BB"/>
<path fill-rule="evenodd" clip-rule="evenodd" d="M69.5002 158.5C69.1326 162.044 70.1326 165.044 72.5002 167.5C70.888 169.298 69.388 171.298 68.0002 173.5C67.8323 198.003 67.3323 222.337 66.5002 246.5C58.0469 243.049 52.3802 237.049 49.5002 228.5C48.001 211.138 48.1677 193.805 50.0002 176.5C53.514 167.149 60.014 161.149 69.5002 158.5Z" fill="#DCAE4A"/>
<path fill-rule="evenodd" clip-rule="evenodd" d="M241.5 158.5C241.132 162.044 242.132 165.044 244.5 167.5C243.258 169.25 241.758 170.917 240 172.5C239.832 197.337 239.332 222.003 238.5 246.5C230.494 243.16 224.827 237.494 221.5 229.5C220.408 212.854 220.241 196.187 221 179.5C224.019 168.649 230.852 161.649 241.5 158.5Z" fill="#F83268"/>
<path fill-rule="evenodd" clip-rule="evenodd" d="M413.5 158.5C413.022 162.338 414.022 165.671 416.5 168.5C414.193 169.977 412.36 171.977 411 174.5C411.159 198.521 410.326 222.188 408.5 245.5C401.412 242.08 396.412 236.747 393.5 229.5C392.377 212.865 392.21 196.198 393 179.5C395.992 168.675 402.826 161.675 413.5 158.5Z" fill="#366FC9"/>
<path fill-rule="evenodd" clip-rule="evenodd" d="M444.5 238.5C443.833 238.5 443.5 238.833 443.5 239.5C439.224 243.472 434.224 246.139 428.5 247.5C429.914 245.946 431.581 244.612 433.5 243.5C435.548 238.595 434.048 235.262 429 233.5C428.172 229.129 428.339 224.795 429.5 220.5C434.077 219.079 435.577 216.079 434 211.5C432.758 210.128 431.258 209.128 429.5 208.5C428.507 203.88 428.173 199.214 428.5 194.5C434.039 193.761 435.705 190.761 433.5 185.5C429.578 183.416 427.745 180.083 428 175.5C427.074 173.308 425.907 171.308 424.5 169.5C427.29 168.033 428.956 165.7 429.5 162.5C430.161 161.282 430.828 159.949 431.5 158.5C440.595 162.429 446.761 169.096 450 178.5C450.667 194.167 450.667 209.833 450 225.5C448.688 230.116 446.855 234.449 444.5 238.5Z" fill="#3585CA"/>
<path fill-rule="evenodd" clip-rule="evenodd" d="M87.5 158.5C97.038 162.538 103.205 169.538 106 179.5C106.667 195.5 106.667 211.5 106 227.5C104.681 231.472 102.847 235.139 100.5 238.5C99.5 238.833 98.8333 239.5 98.5 240.5C96.1416 242.678 93.4749 244.345 90.5 245.5C87.9991 245.489 87.8324 244.822 90 243.5C91.8058 238.287 90.1392 234.953 85 233.5C84.501 229.179 84.3343 224.846 84.5 220.5C89.7759 219.707 91.6092 216.707 90 211.5C88.7365 209.393 86.9032 208.393 84.5 208.5C84.1744 204.116 84.5078 199.783 85.5 195.5C90.1805 193.714 91.6805 190.381 90 185.5C88.5587 184.13 86.892 183.13 85 182.5C85.3425 177.431 83.8425 173.098 80.5 169.5C84.6312 166.889 86.9646 163.222 87.5 158.5Z" fill="#F4C552"/>
<path fill-rule="evenodd" clip-rule="evenodd" d="M257.5 157.5C267.514 161.348 274.347 168.348 278 178.5C278.667 194.167 278.667 209.833 278 225.5C276.694 230.106 274.86 234.439 272.5 238.5C268.068 243.051 262.735 246.051 256.5 247.5C257.747 245.822 259.414 244.489 261.5 243.5C263.822 238.346 262.322 235.013 257 233.5C256.172 229.129 256.339 224.795 257.5 220.5C262.077 219.079 263.577 216.079 262 211.5C260.736 209.393 258.903 208.393 256.5 208.5C256.174 204.116 256.508 199.783 257.5 195.5C264.152 191.115 264.152 186.782 257.5 182.5C257.352 177.489 255.685 173.155 252.5 169.5C256.858 166.767 258.525 162.767 257.5 157.5Z" fill="#FB4580"/>
<path fill-rule="evenodd" clip-rule="evenodd" d="M72.5001 167.5C74.3058 168.024 75.9725 168.691 77.5001 169.5C75.2476 169.916 73.7476 171.249 73.0001 173.5C72.3334 208.833 72.3334 244.167 73.0001 279.5C74.0758 282.079 75.9091 283.746 78.5001 284.5C75.4494 285.832 72.4494 285.499 69.5001 283.5C68.68 281.86 67.8467 280.193 67.0001 278.5C66.5007 273.177 66.3341 267.844 66.5001 262.5C66.5001 257.167 66.5001 251.833 66.5001 246.5C67.3322 222.337 67.8322 198.003 68.0001 173.5C69.3879 171.298 70.8879 169.298 72.5001 167.5Z" fill="#C69941"/>
<path fill-rule="evenodd" clip-rule="evenodd" d="M244.5 167.5C246.626 168.048 248.626 168.715 250.5 169.5C247.708 169.452 245.875 170.785 245 173.5C244.333 209.167 244.333 244.833 245 280.5C246.018 282.928 247.852 284.262 250.5 284.5C247.449 285.832 244.449 285.499 241.5 283.5C240.199 282.118 239.366 280.452 239 278.5C238.501 273.177 238.334 267.844 238.5 262.5C238.5 257.167 238.5 251.833 238.5 246.5C239.332 222.003 239.832 197.337 240 172.5C241.758 170.917 243.258 169.25 244.5 167.5Z" fill="#E22E64"/>
<path fill-rule="evenodd" clip-rule="evenodd" d="M416.5 168.5C418.415 168.216 420.081 168.549 421.5 169.5C419.629 169.859 418.129 170.859 417 172.5C416.333 208.5 416.333 244.5 417 280.5C417.792 282.644 419.292 283.977 421.5 284.5C418.783 285.767 416.117 285.434 413.5 283.5C412.496 282.317 411.662 280.984 411 279.5C410.501 273.843 410.334 268.176 410.5 262.5C411.045 256.537 410.379 250.87 408.5 245.5C410.326 222.188 411.159 198.521 411 174.5C412.36 171.977 414.193 169.977 416.5 168.5Z" fill="#3267B3"/>
<path fill-rule="evenodd" clip-rule="evenodd" d="M77.5 169.5C78.5 169.5 79.5 169.5 80.5 169.5C83.8425 173.098 85.3425 177.431 85 182.5C86.892 183.13 88.5587 184.13 90 185.5C91.6805 190.381 90.1805 193.714 85.5 195.5C84.5078 199.783 84.1744 204.116 84.5 208.5C86.9032 208.393 88.7365 209.393 90 211.5C91.6092 216.707 89.7759 219.707 84.5 220.5C84.3343 224.846 84.501 229.179 85 233.5C90.1392 234.953 91.8058 238.287 90 243.5C87.8324 244.822 87.9991 245.489 90.5 245.5C88.7857 246.738 86.7857 247.405 84.5 247.5C84.6665 258.172 84.4998 268.839 84 279.5C83.4867 280.527 82.9867 281.527 82.5 282.5C81.3951 283.6 80.0618 284.267 78.5 284.5C75.909 283.746 74.0757 282.079 73 279.5C72.3333 244.167 72.3333 208.833 73 173.5C73.7475 171.249 75.2475 169.916 77.5 169.5Z" fill="#DCAE4A"/>
<path fill-rule="evenodd" clip-rule="evenodd" d="M250.5 169.5C251.167 169.5 251.833 169.5 252.5 169.5C255.685 173.155 257.352 177.489 257.5 182.5C264.152 186.782 264.152 191.115 257.5 195.5C256.508 199.783 256.174 204.116 256.5 208.5C258.903 208.393 260.736 209.393 262 211.5C263.577 216.079 262.077 219.079 257.5 220.5C256.339 224.795 256.172 229.129 257 233.5C262.322 235.013 263.822 238.346 261.5 243.5C259.414 244.489 257.747 245.822 256.5 247.5C256.666 257.839 256.5 268.172 256 278.5C255.634 280.452 254.801 282.118 253.5 283.5C252.609 284.11 251.609 284.443 250.5 284.5C247.852 284.262 246.018 282.928 245 280.5C244.333 244.833 244.333 209.167 245 173.5C245.875 170.785 247.708 169.452 250.5 169.5Z" fill="#F93268"/>
<path fill-rule="evenodd" clip-rule="evenodd" d="M421.5 169.5C422.5 169.5 423.5 169.5 424.5 169.5C425.907 171.308 427.074 173.308 428 175.5C427.745 180.083 429.578 183.416 433.5 185.5C435.705 190.761 434.039 193.761 428.5 194.5C428.173 199.214 428.507 203.88 429.5 208.5C431.258 209.128 432.758 210.128 434 211.5C435.577 216.079 434.077 219.079 429.5 220.5C428.339 224.795 428.172 229.129 429 233.5C434.048 235.262 435.548 238.595 433.5 243.5C431.581 244.612 429.914 245.946 428.5 247.5C428.666 257.839 428.5 268.172 428 278.5C427.153 280.193 426.32 281.86 425.5 283.5C424.292 284.234 422.959 284.567 421.5 284.5C419.292 283.977 417.792 282.644 417 280.5C416.333 244.5 416.333 208.5 417 172.5C418.129 170.859 419.629 169.859 421.5 169.5Z" fill="#366EC8"/>
<path fill-rule="evenodd" clip-rule="evenodd" d="M393.5 229.5C396.412 236.747 401.412 242.08 408.5 245.5C410.379 250.87 411.045 256.537 410.5 262.5C408.004 261.42 405.67 260.086 403.5 258.5C403.167 258.5 402.833 258.5 402.5 258.5C395.297 250.22 392.297 240.553 393.5 229.5Z" fill="#32324D"/>
<path fill-rule="evenodd" clip-rule="evenodd" d="M49.5002 228.5C52.3802 237.049 58.0469 243.049 66.5002 246.5C66.5002 251.833 66.5002 257.167 66.5002 262.5C64.004 261.42 61.6707 260.086 59.5002 258.5C51.5769 250.182 48.2435 240.182 49.5002 228.5Z" fill="#34334D"/>
<path fill-rule="evenodd" clip-rule="evenodd" d="M221.5 229.5C224.827 237.494 230.494 243.16 238.5 246.5C238.5 251.833 238.5 257.167 238.5 262.5C236.004 261.42 233.67 260.086 231.5 258.5C223.437 250.594 220.104 240.927 221.5 229.5Z" fill="#A65C3C"/>
<path fill-rule="evenodd" clip-rule="evenodd" d="M98.5 240.5C99.4988 288.33 99.8322 336.33 99.5 384.5C93.1667 384.5 86.8333 384.5 80.5 384.5C80.5 369.167 80.5 353.833 80.5 338.5C84.5138 338.666 88.5138 338.499 92.5 338C96.5 335 96.5 332 92.5 329C88.5138 328.501 84.5138 328.334 80.5 328.5C80.8276 317.986 80.4942 307.653 79.5 297.5C82.2273 292.965 83.2273 287.965 82.5 282.5C82.9867 281.527 83.4867 280.527 84 279.5C84.4998 268.839 84.6665 258.172 84.5 247.5C86.7857 247.405 88.7857 246.738 90.5 245.5C93.4749 244.345 96.1416 242.678 98.5 240.5Z" fill="#32314B"/>
<path fill-rule="evenodd" clip-rule="evenodd" d="M272.5 238.5C272.5 287.167 272.5 335.833 272.5 384.5C265.833 384.5 259.167 384.5 252.5 384.5C252.5 369.167 252.5 353.833 252.5 338.5C256.514 338.666 260.514 338.499 264.5 338C268.5 335 268.5 332 264.5 329C260.514 328.501 256.514 328.334 252.5 328.5C252.828 317.986 252.494 307.653 251.5 297.5C253.371 293.134 254.038 288.467 253.5 283.5C254.801 282.118 255.634 280.452 256 278.5C256.5 268.172 256.666 257.839 256.5 247.5C262.735 246.051 268.068 243.051 272.5 238.5Z" fill="#A75F40"/>
<path fill-rule="evenodd" clip-rule="evenodd" d="M443.5 239.5C443.5 287.833 443.5 336.167 443.5 384.5C437.167 384.5 430.833 384.5 424.5 384.5C424.5 369.167 424.5 353.833 424.5 338.5C428.514 338.666 432.514 338.499 436.5 338C440.5 335 440.5 332 436.5 329C432.514 328.501 428.514 328.334 424.5 328.5C424.828 317.986 424.494 307.653 423.5 297.5C425.371 293.134 426.038 288.467 425.5 283.5C426.32 281.86 427.153 280.193 428 278.5C428.5 268.172 428.666 257.839 428.5 247.5C434.224 246.139 439.224 243.472 443.5 239.5Z" fill="#32314B"/>
<path fill-rule="evenodd" clip-rule="evenodd" d="M402.5 258.5C402.833 258.5 403.167 258.5 403.5 258.5C403.168 302.003 403.501 345.337 404.5 388.5C404.167 389.5 403.5 390.167 402.5 390.5C402.5 346.5 402.5 302.5 402.5 258.5Z" fill="#4E7698"/>
<path fill-rule="evenodd" clip-rule="evenodd" d="M59.5 258.5C61.6705 260.086 64.0038 261.42 66.5 262.5C66.334 267.844 66.5006 273.177 67 278.5C67.8466 280.193 68.6799 281.86 69.5 283.5C69.307 287.566 69.6403 291.566 70.5 295.5C70.5 325.167 70.5 354.833 70.5 384.5C68.901 384.232 67.5676 384.566 66.5 385.5C63.7052 386.063 61.3718 387.396 59.5 389.5C59.5 345.833 59.5 302.167 59.5 258.5Z" fill="#1F1F30"/>
<path fill-rule="evenodd" clip-rule="evenodd" d="M231.5 258.5C233.67 260.086 236.004 261.42 238.5 262.5C238.334 267.844 238.501 273.177 239 278.5C239.366 280.452 240.199 282.118 241.5 283.5C241.237 287.6 241.57 291.6 242.5 295.5C242.5 325.167 242.5 354.833 242.5 384.5C238.199 384.818 234.532 386.485 231.5 389.5C231.5 345.833 231.5 302.167 231.5 258.5Z" fill="#873C2A"/>
<path fill-rule="evenodd" clip-rule="evenodd" d="M403.5 258.5C405.67 260.086 408.004 261.42 410.5 262.5C410.334 268.176 410.501 273.843 411 279.5C411.662 280.984 412.496 282.317 413.5 283.5C413.237 287.6 413.57 291.6 414.5 295.5C414.5 325.167 414.5 354.833 414.5 384.5C410.564 384.475 407.23 385.809 404.5 388.5C403.501 345.337 403.168 302.003 403.5 258.5Z" fill="#1F1F30"/>
<path fill-rule="evenodd" clip-rule="evenodd" d="M100.5 238.5C100.5 287.167 100.5 335.833 100.5 384.5C100.167 384.5 99.8333 384.5 99.5 384.5C99.8322 336.33 99.4988 288.33 98.5 240.5C98.8333 239.5 99.5 238.833 100.5 238.5Z" fill="#465A7A"/>
<path fill-rule="evenodd" clip-rule="evenodd" d="M82.4999 282.5C83.2272 287.965 82.2272 292.965 79.4999 297.5C75.9469 299.195 72.9469 298.528 70.4999 295.5C69.6402 291.566 69.3069 287.566 69.4999 283.5C72.4492 285.499 75.4492 285.832 78.4999 284.5C80.0617 284.267 81.395 283.6 82.4999 282.5Z" fill="#ECBBB2"/>
<path fill-rule="evenodd" clip-rule="evenodd" d="M241.5 283.5C244.449 285.499 247.449 285.832 250.5 284.5C251.609 284.443 252.609 284.11 253.5 283.5C254.038 288.467 253.371 293.134 251.5 297.5C247.947 299.195 244.947 298.528 242.5 295.5C241.57 291.6 241.237 287.6 241.5 283.5Z" fill="#F7C1B5"/>
<path fill-rule="evenodd" clip-rule="evenodd" d="M413.5 283.5C416.117 285.434 418.783 285.767 421.5 284.5C422.959 284.567 424.292 284.234 425.5 283.5C426.038 288.467 425.371 293.134 423.5 297.5C419.947 299.195 416.947 298.528 414.5 295.5C413.57 291.6 413.237 287.6 413.5 283.5Z" fill="#F3C1B7"/>
<path fill-rule="evenodd" clip-rule="evenodd" d="M70.5 295.5C72.947 298.528 75.947 299.195 79.5 297.5C80.4942 307.653 80.8276 317.986 80.5 328.5C84.5138 328.334 88.5138 328.501 92.5 329C96.5 332 96.5 335 92.5 338C88.5138 338.499 84.5138 338.666 80.5 338.5C80.5 353.833 80.5 369.167 80.5 384.5C77.3188 384.888 74.6522 386.222 72.5 388.5C71.8333 387.167 71.1667 385.833 70.5 384.5C70.5 354.833 70.5 325.167 70.5 295.5Z" fill="#27273D"/>
<path fill-rule="evenodd" clip-rule="evenodd" d="M414.5 295.5C416.947 298.528 419.947 299.195 423.5 297.5C424.494 307.653 424.828 317.986 424.5 328.5C428.514 328.334 432.514 328.501 436.5 329C440.5 332 440.5 335 436.5 338C432.514 338.499 428.514 338.666 424.5 338.5C424.5 353.833 424.5 369.167 424.5 384.5C420.615 385.109 417.282 386.776 414.5 389.5C414.5 387.833 414.5 386.167 414.5 384.5C414.5 354.833 414.5 325.167 414.5 295.5Z" fill="#27273D"/>
<path fill-rule="evenodd" clip-rule="evenodd" d="M242.5 295.5C244.947 298.528 247.947 299.195 251.5 297.5C252.494 307.653 252.828 317.986 252.5 328.5C256.514 328.334 260.514 328.501 264.5 329C268.5 332 268.5 335 264.5 338C260.514 338.499 256.514 338.666 252.5 338.5C252.5 353.833 252.5 369.167 252.5 384.5C248.748 384.94 245.748 386.607 243.5 389.5C242.549 388.081 242.216 386.415 242.5 384.5C242.5 354.833 242.5 325.167 242.5 295.5Z" fill="#9E4830"/>
<path fill-rule="evenodd" clip-rule="evenodd" d="M87.5 357.5C91.0134 356.876 93.8467 357.876 96 360.5C96.6667 364.167 96.6667 367.833 96 371.5C92.9965 375 89.6631 375.333 86 372.5C84.9548 367.215 85.4548 362.215 87.5 357.5Z" fill="#3D426B"/>
<path fill-rule="evenodd" clip-rule="evenodd" d="M431.5 357.5C434.365 357.055 436.865 357.722 439 359.5C439.667 363.833 439.667 368.167 439 372.5C435.337 375.333 432.004 375 429 371.5C428.333 367.833 428.333 364.167 429 360.5C429.698 359.309 430.531 358.309 431.5 357.5Z" fill="#3D426B"/>
<path fill-rule="evenodd" clip-rule="evenodd" d="M66.4999 385.5C67.8332 385.5 69.1666 385.5 70.4999 385.5C70.4999 387.167 70.4999 388.833 70.4999 390.5C68.3782 394.015 68.0449 397.681 69.4999 401.5C65.8332 401.5 62.1666 401.5 58.4999 401.5C57.0183 397.352 57.3517 393.352 59.4999 389.5C61.3717 387.396 63.7051 386.063 66.4999 385.5Z" fill="#DCAE4A"/>
<path fill-rule="evenodd" clip-rule="evenodd" d="M66.5 385.5C67.5676 384.566 68.901 384.232 70.5 384.5C71.1667 385.833 71.8333 387.167 72.5 388.5C72.1667 389.5 71.5 390.167 70.5 390.5C70.5 388.833 70.5 387.167 70.5 385.5C69.1667 385.5 67.8333 385.5 66.5 385.5Z" fill="#806A44"/>
<path fill-rule="evenodd" clip-rule="evenodd" d="M80.5002 384.5C86.8335 384.5 93.1669 384.5 99.5002 384.5C99.8335 384.5 100.167 384.5 100.5 384.5C110.213 386.286 114.213 391.953 112.5 401.5C98.1669 401.5 83.8335 401.5 69.5002 401.5C68.0452 397.681 68.3785 394.015 70.5002 390.5C71.5002 390.167 72.1669 389.5 72.5002 388.5C74.6524 386.222 77.319 384.888 80.5002 384.5Z" fill="#F3C552"/>
<path fill-rule="evenodd" clip-rule="evenodd" d="M242.5 384.5C242.216 386.415 242.549 388.081 243.5 389.5C240.509 393.101 239.843 397.101 241.5 401.5C237.4 401.763 233.4 401.43 229.5 400.5C228.095 396.522 228.761 392.855 231.5 389.5C234.532 386.485 238.199 384.818 242.5 384.5Z" fill="#E03166"/>
<path fill-rule="evenodd" clip-rule="evenodd" d="M252.5 384.5C259.167 384.5 265.833 384.5 272.5 384.5C275.016 384.755 277.35 385.589 279.5 387C285.475 390.765 286.808 395.599 283.5 401.5C269.5 401.5 255.5 401.5 241.5 401.5C239.843 397.101 240.509 393.101 243.5 389.5C245.748 386.607 248.748 384.94 252.5 384.5Z" fill="#FA4580"/>
<path fill-rule="evenodd" clip-rule="evenodd" d="M414.5 384.5C414.5 386.167 414.5 387.833 414.5 389.5C412.398 393.154 412.065 396.987 413.5 401C409.413 401.762 405.413 401.596 401.5 400.5C400.251 397.057 400.584 393.723 402.5 390.5C403.5 390.167 404.167 389.5 404.5 388.5C407.23 385.809 410.564 384.475 414.5 384.5Z" fill="#366FC8"/>
<path fill-rule="evenodd" clip-rule="evenodd" d="M444.5 238.5C444.5 287.167 444.5 335.833 444.5 384.5C447.016 384.755 449.35 385.589 451.5 387C456.789 390.823 458.122 395.49 455.5 401C459.025 401.179 462.359 401.679 465.5 402.5C465.5 403.167 465.167 403.5 464.5 403.5C382.668 402.501 300.668 402.167 218.5 402.5C217.833 402.5 217.5 402.167 217.5 401.5C221.702 401.817 225.702 401.483 229.5 400.5C233.4 401.43 237.4 401.763 241.5 401.5C255.5 401.5 269.5 401.5 283.5 401.5C323.004 401.832 362.337 401.499 401.5 400.5C405.413 401.596 409.413 401.762 413.5 401C412.065 396.987 412.398 393.154 414.5 389.5C417.282 386.776 420.615 385.109 424.5 384.5C430.833 384.5 437.167 384.5 443.5 384.5C443.5 336.167 443.5 287.833 443.5 239.5C443.5 238.833 443.833 238.5 444.5 238.5Z" fill="#3F83C4"/>
<path fill-rule="evenodd" clip-rule="evenodd" d="M58.5 401.5C62.1667 401.5 65.8333 401.5 69.5 401.5C83.8333 401.5 98.1667 401.5 112.5 401.5C147.5 401.5 182.5 401.5 217.5 401.5C217.5 402.167 217.833 402.5 218.5 402.5C220.89 405.028 223.89 406.528 227.5 407C236.5 407.333 245.5 407.667 254.5 408C262.854 411.02 266.02 416.853 264 425.5C261.545 430.149 257.712 432.983 252.5 434C243.167 434.333 233.833 434.667 224.5 435C212.796 441.304 211.463 449.304 220.5 459C222.392 459.973 224.392 460.64 226.5 461C235.5 461.333 244.5 461.667 253.5 462C264.589 466 267.422 473.167 262 483.5C259.749 485.377 257.249 486.877 254.5 488C245.167 488.333 235.833 488.667 226.5 489C216.42 492.001 212.753 498.501 215.5 508.5C144.01 496.447 87.3434 461.114 45.5 402.5C49.6344 401.515 53.9677 401.182 58.5 401.5Z" fill="#2F609B"/>
<path fill-rule="evenodd" clip-rule="evenodd" d="M218.5 402.5C300.668 402.167 382.668 402.501 464.5 403.5C418.638 466.781 356.638 502.781 278.5 511.5C263.167 511.5 247.833 511.5 232.5 511.5C226.823 510.573 221.156 509.573 215.5 508.5C212.753 498.501 216.42 492.001 226.5 489C235.833 488.667 245.167 488.333 254.5 488C257.249 486.877 259.749 485.377 262 483.5C267.422 473.167 264.589 466 253.5 462C244.5 461.667 235.5 461.333 226.5 461C224.392 460.64 222.392 459.973 220.5 459C211.463 449.304 212.796 441.304 224.5 435C233.833 434.667 243.167 434.333 252.5 434C257.712 432.983 261.545 430.149 264 425.5C266.02 416.853 262.854 411.02 254.5 408C245.5 407.667 236.5 407.333 227.5 407C223.89 406.528 220.89 405.028 218.5 402.5Z" fill="#3267B2"/>
</g>
<defs>
<clipPath id="clip0_118_1426">
<rect width="512" height="512" fill="white"/>
</clipPath>
</defs>
</svg>
