<svg width="512" height="512" viewBox="0 0 512 512" fill="none" xmlns="http://www.w3.org/2000/svg">
<g clip-path="url(#clip0_118_1281)">
<path opacity="0.995" fill-rule="evenodd" clip-rule="evenodd" d="M232.5 -0.5C247.833 -0.5 263.167 -0.5 278.5 -0.5C368.144 10.3879 435.644 54.7213 481 132.5C497.695 163.971 507.861 197.304 511.5 232.5C511.5 247.833 511.5 263.167 511.5 278.5C511.167 278.5 510.833 278.5 510.5 278.5C510.664 275.813 510.497 273.146 510 270.5C487.632 247.965 465.132 225.632 442.5 203.5C441.048 202.698 439.382 202.198 437.5 202C413.965 178.298 390.299 154.798 366.5 131.5C344.673 130.503 322.673 130.169 300.5 130.5C296.144 111.311 284.478 99.1445 265.5 94C262.183 93.5017 258.85 93.335 255.5 93.5C231.758 95.2453 216.758 107.579 210.5 130.5C188.833 130.5 167.167 130.5 145.5 130.5C144.512 135.64 144.179 140.974 144.5 146.5C147.5 146.5 150.5 146.5 153.5 146.5C153.5 165.167 153.5 183.833 153.5 202.5C124.995 202.169 96.6618 202.502 68.5 203.5C68.5 208.833 68.5 214.167 68.5 219.5C70.1667 219.5 71.8333 219.5 73.5 219.5C73.5 268.833 73.5 318.167 73.5 367.5C73.5 368.167 73.8333 368.5 74.5 368.5C120.833 415.167 167.167 461.833 213.5 508.5C122.357 490.848 57.524 439.848 19 355.5C8.86392 330.621 2.36392 304.954 -0.5 278.5C-0.5 263.167 -0.5 247.833 -0.5 232.5C10.3875 142.857 54.7208 75.3573 132.5 30C163.971 13.3053 197.304 3.1386 232.5 -0.5Z" fill="#00DCC0"/>
<path fill-rule="evenodd" clip-rule="evenodd" d="M255.5 93.5C255.5 99.5 255.5 105.5 255.5 111.5C253.167 111.5 250.833 111.5 248.5 111.5C247.51 117.645 247.177 123.978 247.5 130.5C240.978 130.177 234.645 130.51 228.5 131.5C228.5 136.167 228.5 140.833 228.5 145.5C235.167 145.5 241.833 145.5 248.5 145.5C248.5 152.167 248.5 158.833 248.5 165.5C250.833 165.5 253.167 165.5 255.5 165.5C255.5 174.5 255.5 183.5 255.5 192.5C240.833 192.5 226.167 192.5 211.5 192.5C211.5 198.833 211.5 205.167 211.5 211.5C226.167 211.5 240.833 211.5 255.5 211.5C255.5 218.5 255.5 225.5 255.5 232.5C252.167 232.5 248.833 232.5 245.5 232.5C245.5 238.833 245.5 245.167 245.5 251.5C248.833 251.5 252.167 251.5 255.5 251.5C255.5 256.833 255.5 262.167 255.5 267.5C255.167 267.5 254.833 267.5 254.5 267.5C251.5 267.5 248.5 267.5 245.5 267.5C245.5 273.5 245.5 279.5 245.5 285.5C248.625 286.479 251.958 286.813 255.5 286.5C255.5 291.5 255.5 296.5 255.5 301.5C240.833 301.5 226.167 301.5 211.5 301.5C211.5 326.833 211.5 352.167 211.5 377.5C192.5 377.5 173.5 377.5 154.5 377.5C154.5 374.167 154.5 370.833 154.5 367.5C154.5 312.833 154.5 258.167 154.5 203.5C154.5 184.5 154.5 165.5 154.5 146.5C173.341 146.83 192.007 146.497 210.5 145.5C210.5 140.5 210.5 135.5 210.5 130.5C216.758 107.579 231.758 95.2453 255.5 93.5Z" fill="#EDF3FE"/>
<path fill-rule="evenodd" clip-rule="evenodd" d="M255.5 93.5C258.85 93.335 262.183 93.5017 265.5 94C284.478 99.1445 296.144 111.311 300.5 130.5C300.5 135.833 300.5 141.167 300.5 146.5C319.5 146.5 338.5 146.5 357.5 146.5C357.5 165.5 357.5 184.5 357.5 203.5C357.5 208.833 357.5 214.167 357.5 219.5C357.5 268.833 357.5 318.167 357.5 367.5C357.5 371.167 357.5 374.833 357.5 378.5C308.664 378.832 259.997 378.499 211.5 377.5C226.167 377.5 240.833 377.5 255.5 377.5C270.167 377.5 284.833 377.5 299.5 377.5C299.5 352.167 299.5 326.833 299.5 301.5C284.833 301.5 270.167 301.5 255.5 301.5C255.5 296.5 255.5 291.5 255.5 286.5C258.5 286.5 261.5 286.5 264.5 286.5C264.5 280.167 264.5 273.833 264.5 267.5C261.5 267.5 258.5 267.5 255.5 267.5C255.5 262.167 255.5 256.833 255.5 251.5C258.5 251.5 261.5 251.5 264.5 251.5C264.5 245.167 264.5 238.833 264.5 232.5C261.5 232.5 258.5 232.5 255.5 232.5C255.5 225.5 255.5 218.5 255.5 211.5C270.167 211.5 284.833 211.5 299.5 211.5C299.5 205.167 299.5 198.833 299.5 192.5C284.833 192.5 270.167 192.5 255.5 192.5C255.5 183.5 255.5 174.5 255.5 165.5C257.833 165.5 260.167 165.5 262.5 165.5C262.5 158.833 262.5 152.167 262.5 145.5C269.167 145.5 275.833 145.5 282.5 145.5C282.5 140.833 282.5 136.167 282.5 131.5C276.355 130.51 270.022 130.177 263.5 130.5C263.823 123.978 263.49 117.645 262.5 111.5C260.167 111.5 257.833 111.5 255.5 111.5C255.5 105.5 255.5 99.5 255.5 93.5Z" fill="#D4E7F6"/>
<path fill-rule="evenodd" clip-rule="evenodd" d="M248.5 111.5C250.833 111.5 253.167 111.5 255.5 111.5C255.5 129.5 255.5 147.5 255.5 165.5C253.167 165.5 250.833 165.5 248.5 165.5C248.5 158.833 248.5 152.167 248.5 145.5C241.833 145.5 235.167 145.5 228.5 145.5C228.5 140.833 228.5 136.167 228.5 131.5C235.167 131.5 241.833 131.5 248.5 131.5C248.5 124.833 248.5 118.167 248.5 111.5Z" fill="#FE6379"/>
<path fill-rule="evenodd" clip-rule="evenodd" d="M255.5 111.5C257.833 111.5 260.167 111.5 262.5 111.5C262.5 118.167 262.5 124.833 262.5 131.5C269.167 131.5 275.833 131.5 282.5 131.5C282.5 136.167 282.5 140.833 282.5 145.5C275.833 145.5 269.167 145.5 262.5 145.5C262.5 152.167 262.5 158.833 262.5 165.5C260.167 165.5 257.833 165.5 255.5 165.5C255.5 147.5 255.5 129.5 255.5 111.5Z" fill="#FE1F3E"/>
<path fill-rule="evenodd" clip-rule="evenodd" d="M145.5 130.5C167.167 130.5 188.833 130.5 210.5 130.5C210.5 135.5 210.5 140.5 210.5 145.5C188.833 145.5 167.167 145.5 145.5 145.5C145.5 140.5 145.5 135.5 145.5 130.5Z" fill="#7A3EB4"/>
<path fill-rule="evenodd" clip-rule="evenodd" d="M248.5 111.5C248.5 118.167 248.5 124.833 248.5 131.5C241.833 131.5 235.167 131.5 228.5 131.5C234.645 130.51 240.978 130.177 247.5 130.5C247.177 123.978 247.51 117.645 248.5 111.5Z" fill="#F5B9C8"/>
<path fill-rule="evenodd" clip-rule="evenodd" d="M262.5 111.5C263.49 117.645 263.823 123.978 263.5 130.5C270.022 130.177 276.355 130.51 282.5 131.5C275.833 131.5 269.167 131.5 262.5 131.5C262.5 124.833 262.5 118.167 262.5 111.5Z" fill="#F0788E"/>
<path fill-rule="evenodd" clip-rule="evenodd" d="M300.5 130.5C322.673 130.169 344.673 130.503 366.5 131.5C366.5 136.5 366.5 141.5 366.5 146.5C363.5 146.5 360.5 146.5 357.5 146.5C338.5 146.5 319.5 146.5 300.5 146.5C300.5 141.167 300.5 135.833 300.5 130.5Z" fill="#613393"/>
<path fill-rule="evenodd" clip-rule="evenodd" d="M366.5 131.5C390.299 154.798 413.965 178.298 437.5 202C439.382 202.198 441.048 202.698 442.5 203.5C414.167 203.5 385.833 203.5 357.5 203.5C357.5 184.5 357.5 165.5 357.5 146.5C360.5 146.5 363.5 146.5 366.5 146.5C366.5 141.5 366.5 136.5 366.5 131.5Z" fill="#01B99F"/>
<path fill-rule="evenodd" clip-rule="evenodd" d="M145.5 130.5C145.5 135.5 145.5 140.5 145.5 145.5C167.167 145.5 188.833 145.5 210.5 145.5C192.007 146.497 173.341 146.83 154.5 146.5C154.167 146.5 153.833 146.5 153.5 146.5C150.5 146.5 147.5 146.5 144.5 146.5C144.179 140.974 144.512 135.64 145.5 130.5Z" fill="#825FBD"/>
<path fill-rule="evenodd" clip-rule="evenodd" d="M255.5 192.5C270.167 192.5 284.833 192.5 299.5 192.5C299.5 198.833 299.5 205.167 299.5 211.5C284.833 211.5 270.167 211.5 255.5 211.5C255.5 205.167 255.5 198.833 255.5 192.5Z" fill="#FE9E22"/>
<path fill-rule="evenodd" clip-rule="evenodd" d="M255.5 192.5C255.5 198.833 255.5 205.167 255.5 211.5C240.833 211.5 226.167 211.5 211.5 211.5C211.5 205.167 211.5 198.833 211.5 192.5C226.167 192.5 240.833 192.5 255.5 192.5Z" fill="#EDBF0A"/>
<path fill-rule="evenodd" clip-rule="evenodd" d="M153.5 146.5C153.833 146.5 154.167 146.5 154.5 146.5C154.5 165.5 154.5 184.5 154.5 203.5C154.167 203.5 153.833 203.5 153.5 203.5C125.167 203.5 96.8333 203.5 68.5 203.5C96.6618 202.502 124.995 202.169 153.5 202.5C153.5 183.833 153.5 165.167 153.5 146.5Z" fill="#47C0C8"/>
<path fill-rule="evenodd" clip-rule="evenodd" d="M68.5 203.5C96.8333 203.5 125.167 203.5 153.5 203.5C153.5 208.833 153.5 214.167 153.5 219.5C126.833 219.5 100.167 219.5 73.5 219.5C71.8333 219.5 70.1667 219.5 68.5 219.5C68.5 214.167 68.5 208.833 68.5 203.5Z" fill="#7B41B5"/>
<path fill-rule="evenodd" clip-rule="evenodd" d="M357.5 203.5C385.833 203.5 414.167 203.5 442.5 203.5C442.5 208.833 442.5 214.167 442.5 219.5C440.833 219.5 439.167 219.5 437.5 219.5C410.833 219.5 384.167 219.5 357.5 219.5C357.5 214.167 357.5 208.833 357.5 203.5Z" fill="#623694"/>
<path fill-rule="evenodd" clip-rule="evenodd" d="M442.5 203.5C465.132 225.632 487.632 247.965 510 270.5C510.497 273.146 510.664 275.813 510.5 278.5C500.417 368.362 456.417 435.862 378.5 481C347.029 497.695 313.696 507.861 278.5 511.5C263.167 511.5 247.833 511.5 232.5 511.5C226.3 510.429 219.967 509.429 213.5 508.5C167.167 461.833 120.833 415.167 74.5 368.5C100.833 368.5 127.167 368.5 153.5 368.5C153.19 371.713 153.523 374.713 154.5 377.5C173.5 377.5 192.5 377.5 211.5 377.5C259.997 378.499 308.664 378.832 357.5 378.5C357.5 374.833 357.5 371.167 357.5 367.5C384.167 367.5 410.833 367.5 437.5 367.5C437.5 318.167 437.5 268.833 437.5 219.5C439.167 219.5 440.833 219.5 442.5 219.5C442.5 214.167 442.5 208.833 442.5 203.5Z" fill="#00BAA0"/>
<path fill-rule="evenodd" clip-rule="evenodd" d="M153.5 203.5C153.833 203.5 154.167 203.5 154.5 203.5C154.5 258.167 154.5 312.833 154.5 367.5C127.5 367.5 100.5 367.5 73.5 367.5C73.5 318.167 73.5 268.833 73.5 219.5C100.167 219.5 126.833 219.5 153.5 219.5C153.5 214.167 153.5 208.833 153.5 203.5Z" fill="#D6E8F7"/>
<path fill-rule="evenodd" clip-rule="evenodd" d="M357.5 219.5C384.167 219.5 410.833 219.5 437.5 219.5C437.5 268.833 437.5 318.167 437.5 367.5C410.833 367.5 384.167 367.5 357.5 367.5C357.5 318.167 357.5 268.833 357.5 219.5Z" fill="#B1D6F2"/>
<path fill-rule="evenodd" clip-rule="evenodd" d="M172.5 232.5C178.5 232.5 184.5 232.5 190.5 232.5C190.5 238.833 190.5 245.167 190.5 251.5C184.5 251.5 178.5 251.5 172.5 251.5C172.5 245.167 172.5 238.833 172.5 232.5Z" fill="#7C41B5"/>
<path fill-rule="evenodd" clip-rule="evenodd" d="M229.5 233.5C223.5 233.5 217.5 233.5 211.5 233.5C211.5 239.167 211.5 244.833 211.5 250.5C217.5 250.5 223.5 250.5 229.5 250.5C223.355 251.49 217.022 251.823 210.5 251.5C210.5 245.167 210.5 238.833 210.5 232.5C217.022 232.177 223.355 232.51 229.5 233.5Z" fill="#9970C8"/>
<path fill-rule="evenodd" clip-rule="evenodd" d="M229.5 233.5C229.5 239.167 229.5 244.833 229.5 250.5C223.5 250.5 217.5 250.5 211.5 250.5C211.5 244.833 211.5 239.167 211.5 233.5C217.5 233.5 223.5 233.5 229.5 233.5Z" fill="#7A3EB4"/>
<path fill-rule="evenodd" clip-rule="evenodd" d="M255.5 232.5C258.5 232.5 261.5 232.5 264.5 232.5C264.5 238.833 264.5 245.167 264.5 251.5C261.5 251.5 258.5 251.5 255.5 251.5C252.167 251.5 248.833 251.5 245.5 251.5C245.5 245.167 245.5 238.833 245.5 232.5C248.833 232.5 252.167 232.5 255.5 232.5Z" fill="#67399A"/>
<path fill-rule="evenodd" clip-rule="evenodd" d="M246.5 233.5C249.167 233.5 251.833 233.5 254.5 233.5C254.5 239.167 254.5 244.833 254.5 250.5C251.833 250.5 249.167 250.5 246.5 250.5C246.5 244.833 246.5 239.167 246.5 233.5Z" fill="#793EB4"/>
<path fill-rule="evenodd" clip-rule="evenodd" d="M282.5 232.5C288.5 232.5 294.5 232.5 300.5 232.5C300.5 238.833 300.5 245.167 300.5 251.5C294.5 251.5 288.5 251.5 282.5 251.5C282.5 245.167 282.5 238.833 282.5 232.5Z" fill="#633695"/>
<path fill-rule="evenodd" clip-rule="evenodd" d="M319.5 232.5C325.5 232.5 331.5 232.5 337.5 232.5C337.5 238.833 337.5 245.167 337.5 251.5C331.5 251.5 325.5 251.5 319.5 251.5C319.5 245.167 319.5 238.833 319.5 232.5Z" fill="#633695"/>
<path fill-rule="evenodd" clip-rule="evenodd" d="M89.4999 232.5C89.4999 238.5 89.4999 244.5 89.4999 250.5C95.4999 250.5 101.5 250.5 107.5 250.5C101.355 251.49 95.022 251.823 88.4999 251.5C88.1764 244.978 88.5097 238.645 89.4999 232.5Z" fill="#936DC6"/>
<path fill-rule="evenodd" clip-rule="evenodd" d="M123.5 232.5C129.833 232.5 136.167 232.5 142.5 232.5C142.5 238.833 142.5 245.167 142.5 251.5C136.167 251.5 129.833 251.5 123.5 251.5C123.5 245.167 123.5 238.833 123.5 232.5Z" fill="#8C60C2"/>
<path fill-rule="evenodd" clip-rule="evenodd" d="M124.5 233.5C130.167 233.5 135.833 233.5 141.5 233.5C141.5 239.167 141.5 244.833 141.5 250.5C135.833 250.5 130.167 250.5 124.5 250.5C124.5 244.833 124.5 239.167 124.5 233.5Z" fill="#793EB4"/>
<path fill-rule="evenodd" clip-rule="evenodd" d="M369.5 232.5C369.5 238.5 369.5 244.5 369.5 250.5C375.5 250.5 381.5 250.5 387.5 250.5C381.355 251.49 375.022 251.823 368.5 251.5C368.177 244.978 368.51 238.645 369.5 232.5Z" fill="#765FAD"/>
<path fill-rule="evenodd" clip-rule="evenodd" d="M403.5 232.5C409.833 232.5 416.167 232.5 422.5 232.5C422.5 238.833 422.5 245.167 422.5 251.5C416.167 251.5 409.833 251.5 403.5 251.5C403.5 245.167 403.5 238.833 403.5 232.5Z" fill="#7154A6"/>
<path fill-rule="evenodd" clip-rule="evenodd" d="M404.5 233.5C410.167 233.5 415.833 233.5 421.5 233.5C421.5 239.167 421.5 244.833 421.5 250.5C415.833 250.5 410.167 250.5 404.5 250.5C404.5 244.833 404.5 239.167 404.5 233.5Z" fill="#603393"/>
<path fill-rule="evenodd" clip-rule="evenodd" d="M123.5 267.5C129.833 267.5 136.167 267.5 142.5 267.5C142.5 273.5 142.5 279.5 142.5 285.5C136.167 285.5 129.833 285.5 123.5 285.5C123.5 279.5 123.5 273.5 123.5 267.5Z" fill="#7B41B5"/>
<path fill-rule="evenodd" clip-rule="evenodd" d="M172.5 267.5C178.5 267.5 184.5 267.5 190.5 267.5C190.5 273.5 190.5 279.5 190.5 285.5C184.5 285.5 178.5 285.5 172.5 285.5C172.5 279.5 172.5 273.5 172.5 267.5Z" fill="#793EB4"/>
<path fill-rule="evenodd" clip-rule="evenodd" d="M254.5 267.5C254.5 273.5 254.5 279.5 254.5 285.5C251.5 285.5 248.5 285.5 245.5 285.5C245.5 279.5 245.5 273.5 245.5 267.5C248.5 267.5 251.5 267.5 254.5 267.5Z" fill="#7B3FB4"/>
<path fill-rule="evenodd" clip-rule="evenodd" d="M254.5 267.5C254.833 267.5 255.167 267.5 255.5 267.5C258.5 267.5 261.5 267.5 264.5 267.5C264.5 273.833 264.5 280.167 264.5 286.5C261.5 286.5 258.5 286.5 255.5 286.5C251.958 286.813 248.625 286.479 245.5 285.5C248.5 285.5 251.5 285.5 254.5 285.5C254.5 279.5 254.5 273.5 254.5 267.5Z" fill="#683B9A"/>
<path fill-rule="evenodd" clip-rule="evenodd" d="M282.5 267.5C288.5 267.5 294.5 267.5 300.5 267.5C300.5 273.5 300.5 279.5 300.5 285.5C294.5 285.5 288.5 285.5 282.5 285.5C282.5 279.5 282.5 273.5 282.5 267.5Z" fill="#603393"/>
<path fill-rule="evenodd" clip-rule="evenodd" d="M319.5 267.5C325.5 267.5 331.5 267.5 337.5 267.5C337.5 273.5 337.5 279.5 337.5 285.5C331.5 285.5 325.5 285.5 319.5 285.5C319.5 279.5 319.5 273.5 319.5 267.5Z" fill="#603393"/>
<path fill-rule="evenodd" clip-rule="evenodd" d="M403.5 267.5C409.833 267.5 416.167 267.5 422.5 267.5C422.5 273.5 422.5 279.5 422.5 285.5C416.167 285.5 409.833 285.5 403.5 285.5C403.5 279.5 403.5 273.5 403.5 267.5Z" fill="#623694"/>
<path fill-rule="evenodd" clip-rule="evenodd" d="M89.4999 267.5C89.4999 273.5 89.4999 279.5 89.4999 285.5C95.4999 285.5 101.5 285.5 107.5 285.5C101.355 286.49 95.022 286.823 88.4999 286.5C88.1764 279.978 88.5097 273.645 89.4999 267.5Z" fill="#A996D7"/>
<path fill-rule="evenodd" clip-rule="evenodd" d="M211.5 267.5C211.5 273.5 211.5 279.5 211.5 285.5C217.5 285.5 223.5 285.5 229.5 285.5C223.355 286.49 217.022 286.823 210.5 286.5C210.177 279.978 210.51 273.645 211.5 267.5Z" fill="#B396D8"/>
<path fill-rule="evenodd" clip-rule="evenodd" d="M369.5 267.5C369.5 273.5 369.5 279.5 369.5 285.5C375.5 285.5 381.5 285.5 387.5 285.5C381.355 286.49 375.022 286.823 368.5 286.5C368.177 279.978 368.51 273.645 369.5 267.5Z" fill="#8B88C4"/>
<path fill-rule="evenodd" clip-rule="evenodd" d="M255.5 301.5C255.5 326.833 255.5 352.167 255.5 377.5C240.833 377.5 226.167 377.5 211.5 377.5C211.5 352.167 211.5 326.833 211.5 301.5C226.167 301.5 240.833 301.5 255.5 301.5Z" fill="#793EB4"/>
<path fill-rule="evenodd" clip-rule="evenodd" d="M255.5 301.5C270.167 301.5 284.833 301.5 299.5 301.5C299.5 326.833 299.5 352.167 299.5 377.5C284.833 377.5 270.167 377.5 255.5 377.5C255.5 352.167 255.5 326.833 255.5 301.5Z" fill="#603393"/>
<path fill-rule="evenodd" clip-rule="evenodd" d="M107.5 302.5C101.5 302.5 95.4999 302.5 89.4999 302.5C89.4999 308.5 89.4999 314.5 89.4999 320.5C88.5097 314.355 88.1764 308.022 88.4999 301.5C95.022 301.177 101.355 301.51 107.5 302.5Z" fill="#A38AD2"/>
<path fill-rule="evenodd" clip-rule="evenodd" d="M107.5 302.5C107.5 308.5 107.5 314.5 107.5 320.5C101.5 320.5 95.5 320.5 89.5 320.5C89.5 314.5 89.5 308.5 89.5 302.5C95.5 302.5 101.5 302.5 107.5 302.5Z" fill="#793EB4"/>
<path fill-rule="evenodd" clip-rule="evenodd" d="M141.5 320.5C141.5 314.5 141.5 308.5 141.5 302.5C135.833 302.5 130.167 302.5 124.5 302.5C124.5 308.5 124.5 314.5 124.5 320.5C123.51 314.355 123.177 308.022 123.5 301.5C129.833 301.5 136.167 301.5 142.5 301.5C142.823 308.022 142.49 314.355 141.5 320.5Z" fill="#936DC7"/>
<path fill-rule="evenodd" clip-rule="evenodd" d="M141.5 320.5C135.833 320.5 130.167 320.5 124.5 320.5C124.5 314.5 124.5 308.5 124.5 302.5C130.167 302.5 135.833 302.5 141.5 302.5C141.5 308.5 141.5 314.5 141.5 320.5Z" fill="#793EB4"/>
<path fill-rule="evenodd" clip-rule="evenodd" d="M190.5 320.5C190.5 314.5 190.5 308.5 190.5 302.5C184.5 302.5 178.5 302.5 172.5 302.5C172.5 308.5 172.5 314.5 172.5 320.5C171.51 314.355 171.177 308.022 171.5 301.5C178.167 301.5 184.833 301.5 191.5 301.5C191.823 308.022 191.49 314.355 190.5 320.5Z" fill="#C5B4E4"/>
<path fill-rule="evenodd" clip-rule="evenodd" d="M190.5 320.5C184.5 320.5 178.5 320.5 172.5 320.5C172.5 314.5 172.5 308.5 172.5 302.5C178.5 302.5 184.5 302.5 190.5 302.5C190.5 308.5 190.5 314.5 190.5 320.5Z" fill="#793EB4"/>
<path fill-rule="evenodd" clip-rule="evenodd" d="M319.5 301.5C325.5 301.5 331.5 301.5 337.5 301.5C337.5 307.833 337.5 314.167 337.5 320.5C331.5 320.5 325.5 320.5 319.5 320.5C319.5 314.167 319.5 307.833 319.5 301.5Z" fill="#633795"/>
<path fill-rule="evenodd" clip-rule="evenodd" d="M387.5 302.5C381.5 302.5 375.5 302.5 369.5 302.5C369.5 308.5 369.5 314.5 369.5 320.5C368.51 314.355 368.177 308.022 368.5 301.5C375.022 301.177 381.355 301.51 387.5 302.5Z" fill="#857BBD"/>
<path fill-rule="evenodd" clip-rule="evenodd" d="M387.5 302.5C387.5 308.5 387.5 314.5 387.5 320.5C381.5 320.5 375.5 320.5 369.5 320.5C369.5 314.5 369.5 308.5 369.5 302.5C375.5 302.5 381.5 302.5 387.5 302.5Z" fill="#603393"/>
<path fill-rule="evenodd" clip-rule="evenodd" d="M421.5 320.5C421.5 314.5 421.5 308.5 421.5 302.5C415.833 302.5 410.167 302.5 404.5 302.5C404.5 308.5 404.5 314.5 404.5 320.5C403.51 314.355 403.177 308.022 403.5 301.5C409.833 301.5 416.167 301.5 422.5 301.5C422.823 308.022 422.49 314.355 421.5 320.5Z" fill="#7760AD"/>
<path fill-rule="evenodd" clip-rule="evenodd" d="M421.5 320.5C415.833 320.5 410.167 320.5 404.5 320.5C404.5 314.5 404.5 308.5 404.5 302.5C410.167 302.5 415.833 302.5 421.5 302.5C421.5 308.5 421.5 314.5 421.5 320.5Z" fill="#603393"/>
<path fill-rule="evenodd" clip-rule="evenodd" d="M123.5 336.5C129.833 336.5 136.167 336.5 142.5 336.5C142.5 342.833 142.5 349.167 142.5 355.5C136.167 355.5 129.833 355.5 123.5 355.5C123.5 349.167 123.5 342.833 123.5 336.5Z" fill="#8D61C2"/>
<path fill-rule="evenodd" clip-rule="evenodd" d="M124.5 337.5C130.167 337.5 135.833 337.5 141.5 337.5C141.5 343.167 141.5 348.833 141.5 354.5C135.833 354.5 130.167 354.5 124.5 354.5C124.5 348.833 124.5 343.167 124.5 337.5Z" fill="#793EB4"/>
<path fill-rule="evenodd" clip-rule="evenodd" d="M172.5 336.5C178.5 336.5 184.5 336.5 190.5 336.5C190.5 342.833 190.5 349.167 190.5 355.5C184.5 355.5 178.5 355.5 172.5 355.5C172.5 349.167 172.5 342.833 172.5 336.5Z" fill="#7C41B5"/>
<path fill-rule="evenodd" clip-rule="evenodd" d="M403.5 336.5C409.833 336.5 416.167 336.5 422.5 336.5C422.5 342.833 422.5 349.167 422.5 355.5C416.167 355.5 409.833 355.5 403.5 355.5C403.5 349.167 403.5 342.833 403.5 336.5Z" fill="#7254A6"/>
<path fill-rule="evenodd" clip-rule="evenodd" d="M404.5 337.5C410.167 337.5 415.833 337.5 421.5 337.5C421.5 343.167 421.5 348.833 421.5 354.5C415.833 354.5 410.167 354.5 404.5 354.5C404.5 348.833 404.5 343.167 404.5 337.5Z" fill="#603393"/>
<path fill-rule="evenodd" clip-rule="evenodd" d="M89.4999 336.5C89.4999 342.5 89.4999 348.5 89.4999 354.5C95.4999 354.5 101.5 354.5 107.5 354.5C101.355 355.49 95.022 355.823 88.4999 355.5C88.1764 348.978 88.5097 342.645 89.4999 336.5Z" fill="#9877CA"/>
<path fill-rule="evenodd" clip-rule="evenodd" d="M319.5 336.5C319.5 342.5 319.5 348.5 319.5 354.5C325.5 354.5 331.5 354.5 337.5 354.5C331.355 355.49 325.022 355.823 318.5 355.5C318.177 348.978 318.51 342.645 319.5 336.5Z" fill="#8B74B6"/>
<path fill-rule="evenodd" clip-rule="evenodd" d="M369.5 336.5C369.5 342.5 369.5 348.5 369.5 354.5C375.5 354.5 381.5 354.5 387.5 354.5C381.355 355.49 375.022 355.823 368.5 355.5C368.177 348.978 368.51 342.645 369.5 336.5Z" fill="#7C6AB2"/>
<path fill-rule="evenodd" clip-rule="evenodd" d="M73.5 367.5C100.5 367.5 127.5 367.5 154.5 367.5C154.5 370.833 154.5 374.167 154.5 377.5C153.523 374.713 153.19 371.713 153.5 368.5C127.167 368.5 100.833 368.5 74.5 368.5C73.8333 368.5 73.5 368.167 73.5 367.5Z" fill="#50CBC0"/>
</g>
<defs>
<clipPath id="clip0_118_1281">
<rect width="512" height="512" fill="white"/>
</clipPath>
</defs>
</svg>
