<svg width="512" height="512" viewBox="0 0 512 512" fill="none" xmlns="http://www.w3.org/2000/svg">
<g clip-path="url(#clip0_118_1559)">
<path opacity="0.976" fill-rule="evenodd" clip-rule="evenodd" d="M409.5 -0.5C412.833 -0.5 416.167 -0.5 419.5 -0.5C412.833 5.83333 412.833 12.1667 419.5 18.5C406.833 18.5 394.167 18.5 381.5 18.5C388.668 9.00314 398.001 2.6698 409.5 -0.5Z" fill="#BEC8F7"/>
<path opacity="0.98" fill-rule="evenodd" clip-rule="evenodd" d="M419.5 -0.5C422.833 -0.5 426.167 -0.5 429.5 -0.5C441.509 2.16084 451.175 8.49417 458.5 18.5C445.5 18.5 432.5 18.5 419.5 18.5C412.833 12.1667 412.833 5.83333 419.5 -0.5Z" fill="#D2DBFB"/>
<path opacity="0.981" fill-rule="evenodd" clip-rule="evenodd" d="M85.5002 14.5C82.8558 18.6698 80.3558 23.0032 78.0002 27.5C74.733 37.8549 76.8997 46.8549 84.5002 54.5C70.3606 54.8216 58.5273 60.1549 49.0002 70.5C46.3095 74.7901 44.8095 79.4568 44.5002 84.5C42.9129 89.6318 40.5795 94.2985 37.5002 98.5C34.8335 97.1667 32.1669 97.1667 29.5002 98.5C28.3564 83.1805 27.8564 67.8472 28.0002 52.5C30.471 42.7072 35.971 35.2072 44.5002 30C56.6847 20.9076 70.3513 15.7409 85.5002 14.5Z" fill="#2A428C"/>
<path opacity="0.994" fill-rule="evenodd" clip-rule="evenodd" d="M85.5002 14.5C97.7227 15.0738 109.056 18.5738 119.5 25C129.304 29.9734 136.97 37.14 142.5 46.5C143.352 63.8372 143.019 81.1705 141.5 98.5C139.059 97.2437 136.726 97.2437 134.5 98.5C131.132 94.4306 128.799 89.7639 127.5 84.5C126.248 72.8253 120.248 64.6586 109.5 60C104.287 57.9835 98.9542 56.4835 93.5002 55.5C90.7133 54.5233 87.7133 54.19 84.5002 54.5C76.8997 46.8549 74.733 37.8549 78.0002 27.5C80.3558 23.0032 82.8558 18.6698 85.5002 14.5Z" fill="#3C58A0"/>
<path opacity="0.996" fill-rule="evenodd" clip-rule="evenodd" d="M381.5 18.5C394.167 18.5 406.833 18.5 419.5 18.5C416.833 21.5 416.833 24.5 419.5 27.5C417.251 28.0798 415.585 29.4131 414.5 31.5C413.527 33.9479 413.194 36.6146 413.5 39.5C407.505 38.3258 403.505 40.4925 401.5 46C401.643 48.151 402.643 49.8176 404.5 51C407.482 51.498 410.482 51.6646 413.5 51.5C413.194 54.3854 413.527 57.0521 414.5 59.5C415.167 62.1667 416.833 63.8333 419.5 64.5C417.544 66.9815 417.211 69.6482 418.5 72.5C416.369 73.1687 414.369 73.8354 412.5 74.5C409.941 74.1984 407.607 74.5318 405.5 75.5C396.11 76.4431 387.11 78.7764 378.5 82.5C375.123 83.9015 371.79 83.7348 368.5 82C367.052 79.1241 365.719 76.2908 364.5 73.5C364.012 63.5701 362.345 53.9034 359.5 44.5C354.978 25.6939 362.311 17.0273 381.5 18.5Z" fill="#D3DBFA"/>
<path opacity="0.993" fill-rule="evenodd" clip-rule="evenodd" d="M419.5 18.5C432.5 18.5 445.5 18.5 458.5 18.5C475.487 16.3212 482.987 23.6546 481 40.5C479.165 50.8464 477.331 61.1798 475.5 71.5C475.153 79.1808 471.153 83.1808 463.5 83.5C447.275 76.3449 430.275 73.3449 412.5 74.5C414.369 73.8354 416.369 73.1687 418.5 72.5C417.211 69.6482 417.544 66.9815 419.5 64.5C422.732 64.2283 424.732 62.5616 425.5 59.5C426.468 57.3926 426.802 55.0593 426.5 52.5C432.444 53.6979 436.444 51.5312 438.5 46C436.444 40.4688 432.444 38.3021 426.5 39.5C426.802 36.9407 426.468 34.6074 425.5 32.5C424.732 29.4384 422.732 27.7717 419.5 27.5C416.833 24.5 416.833 21.5 419.5 18.5Z" fill="#E8EEFE"/>
<path opacity="0.995" fill-rule="evenodd" clip-rule="evenodd" d="M359.5 44.5C362.345 53.9034 364.012 63.5701 364.5 73.5C360.943 80.275 357.11 86.9417 353 93.5C352 96.1667 351 98.8333 350 101.5C349.704 110.286 350.371 118.953 352 127.5C349.919 133.327 346.586 138.327 342 142.5C338.258 148.849 337.591 155.516 340 162.5C344.871 171.161 346.871 180.495 346 190.5C346.826 194.818 348.326 198.818 350.5 202.5C342.113 206.132 333.446 209.299 324.5 212C318.827 215.499 314.66 220.333 312 226.5C309.512 235.783 307.346 245.116 305.5 254.5C303.36 251.387 300.36 250.054 296.5 250.5C294.118 245.693 292.118 240.693 290.5 235.5C305.024 219.596 313.357 200.929 315.5 179.5C319.31 179.621 322.477 178.288 325 175.5C326.596 168.27 328.93 161.27 332 154.5C333.363 150.239 333.696 145.905 333 141.5C331.809 138.466 329.642 136.799 326.5 136.5C327.585 120.163 328.418 103.829 329 87.5C325.207 69.0604 315.373 54.8937 299.5 45C280.897 34.8931 261.231 31.0598 240.5 33.5C223.543 34.5614 209.709 41.5614 199 54.5C195.504 59.988 193.838 65.988 194 72.5C186.9 77.3331 182.234 83.9998 180 92.5C177.994 106.192 178.161 119.859 180.5 133.5C180.5 134.5 180.5 135.5 180.5 136.5C176.403 136.469 173.903 138.469 173 142.5C172.333 145.167 172.333 147.833 173 150.5C176.808 158.116 179.474 166.116 181 174.5C183.306 178.633 186.806 180.3 191.5 179.5C192.718 200.923 200.718 219.256 215.5 234.5C214.873 240.386 212.873 245.719 209.5 250.5C206.495 250.253 203.995 251.253 202 253.5C201.617 252.944 201.117 252.611 200.5 252.5C198.728 241.076 195.562 230.076 191 219.5C189.5 218 188 216.5 186.5 215C170.391 208.779 154.391 202.279 138.5 195.5C138.5 193.833 138.5 192.167 138.5 190.5C132.925 188.211 127.258 186.211 121.5 184.5C116.584 180.793 113.918 175.793 113.5 169.5C123.195 159.104 128.862 146.771 130.5 132.5C131.404 131.791 131.737 130.791 131.5 129.5C134.099 129.451 136.266 128.451 138 126.5C139.425 120.315 141.425 114.315 144 108.5C145.139 104.579 144.305 101.246 141.5 98.5C143.019 81.1705 143.352 63.8372 142.5 46.5C200.871 18.9668 261.204 13.8001 323.5 31C335.717 35.0156 347.717 39.5156 359.5 44.5Z" fill="#FEDC40"/>
<path fill-rule="evenodd" clip-rule="evenodd" d="M419.5 27.5C422.732 27.7717 424.732 29.4384 425.5 32.5C425.5 35.1667 425.5 37.8333 425.5 40.5C421.833 40.5 418.167 40.5 414.5 40.5C414.5 37.5 414.5 34.5 414.5 31.5C415.585 29.4131 417.251 28.0798 419.5 27.5Z" fill="#FE475A"/>
<path fill-rule="evenodd" clip-rule="evenodd" d="M240.5 33.4999C245.511 33.334 250.511 33.5006 255.5 33.9999C239.092 46.5573 237.092 61.224 249.5 77.9999C248.552 78.4827 247.552 78.6494 246.5 78.4999C208.993 65.8505 191.826 79.1838 195 118.5C191.951 124.6 189.451 130.934 187.5 137.5C185.621 136.659 183.621 136.325 181.5 136.5C181.737 135.209 181.404 134.209 180.5 133.5C178.161 119.859 177.994 106.192 180 92.4999C182.234 83.9997 186.9 77.333 194 72.4999C193.838 65.9879 195.504 59.9879 199 54.4999C209.709 41.5613 223.543 34.5613 240.5 33.4999Z" fill="#BC6342"/>
<path fill-rule="evenodd" clip-rule="evenodd" d="M240.5 33.5C261.231 31.0598 280.897 34.8931 299.5 45C315.373 54.8937 325.207 69.0604 329 87.5C328.418 103.829 327.585 120.163 326.5 136.5C323.721 136.279 321.054 136.612 318.5 137.5C317.414 131.405 315.247 125.739 312 120.5C315.628 79.7432 298.128 65.9099 259.5 79C256.183 79.4983 252.85 79.665 249.5 79.5C248.209 79.7373 247.209 79.404 246.5 78.5C247.552 78.6495 248.552 78.4828 249.5 78C237.092 61.2241 239.092 46.5574 255.5 34C250.511 33.5007 245.511 33.3341 240.5 33.5Z" fill="#D1714B"/>
<path fill-rule="evenodd" clip-rule="evenodd" d="M414.5 31.5C414.5 34.5 414.5 37.5 414.5 40.5C418.167 40.5 421.833 40.5 425.5 40.5C425.5 37.8333 425.5 35.1667 425.5 32.5C426.468 34.6074 426.802 36.9407 426.5 39.5C432.444 38.3021 436.444 40.4688 438.5 46C436.444 51.5312 432.444 53.6979 426.5 52.5C426.802 55.0593 426.468 57.3926 425.5 59.5C425.5 56.8333 425.5 54.1667 425.5 51.5C421.833 51.5 418.167 51.5 414.5 51.5C414.5 54.1667 414.5 56.8333 414.5 59.5C413.527 57.0521 413.194 54.3854 413.5 51.5C410.482 51.6646 407.482 51.498 404.5 51C402.643 49.8176 401.643 48.151 401.5 46C403.505 40.4925 407.505 38.3258 413.5 39.5C413.194 36.6146 413.527 33.9479 414.5 31.5Z" fill="#FD778C"/>
<path fill-rule="evenodd" clip-rule="evenodd" d="M425.5 59.5C424.732 62.5616 422.732 64.2283 419.5 64.5C416.833 63.8333 415.167 62.1667 414.5 59.5C414.5 56.8333 414.5 54.1667 414.5 51.5C418.167 51.5 421.833 51.5 425.5 51.5C425.5 54.1667 425.5 56.8333 425.5 59.5Z" fill="#FE475A"/>
<path fill-rule="evenodd" clip-rule="evenodd" d="M84.5 54.5C87.7131 54.19 90.7131 54.5233 93.5 55.5C84.776 53.8673 82.1093 56.8673 85.5 64.5C83.901 64.2322 82.5676 64.5655 81.5 65.5C71.4435 65.2401 62.1101 67.7401 53.5 73C49.4905 76.1607 46.4905 79.994 44.5 84.5C44.8093 79.4568 46.3093 74.7901 49 70.5C58.5271 60.1549 70.3604 54.8216 84.5 54.5Z" fill="#5270B3"/>
<path fill-rule="evenodd" clip-rule="evenodd" d="M93.5001 55.5C98.9541 56.4835 104.287 57.9835 109.5 60C120.248 64.6586 126.248 72.8253 127.5 84.5C124.353 77.8548 119.353 73.0214 112.5 70C103.739 66.9479 94.7393 65.1145 85.5002 64.5C82.1095 56.8673 84.7761 53.8673 93.5001 55.5Z" fill="#6488C9"/>
<path opacity="0.999" fill-rule="evenodd" clip-rule="evenodd" d="M81.5 65.5C82.2389 65.369 82.9056 65.5357 83.5 66C76 69.5 70.5 75 67 82.5C66.3054 94.1854 66.472 105.852 67.5 117.5C66.8333 117.5 66.5 117.833 66.5 118.5C58.1012 123.366 49.4345 127.699 40.5 131.5C40.5 130.833 40.5 130.167 40.5 129.5C39.9046 119.081 38.9046 108.747 37.5 98.5C40.5793 94.2985 42.9127 89.6318 44.5 84.5C46.4905 79.994 49.4905 76.1607 53.5 73C62.1101 67.7401 71.4435 65.2401 81.5 65.5Z" fill="#E48A6C"/>
<path fill-rule="evenodd" clip-rule="evenodd" d="M81.5002 65.5C82.5678 64.5655 83.9012 64.2322 85.5002 64.5C94.7394 65.1145 103.739 66.9479 112.5 70C119.353 73.0214 124.353 77.8548 127.5 84.5C128.799 89.7639 131.132 94.4306 134.5 98.5C133.284 109.474 131.951 120.474 130.5 131.5C123.032 127.598 115.698 123.432 108.5 119C94.9976 113.62 81.3309 113.12 67.5002 117.5C66.4722 105.852 66.3056 94.1854 67.0002 82.5C70.5002 75 76.0002 69.5 83.5002 66C82.9058 65.5357 82.2391 65.369 81.5002 65.5Z" fill="#F19F8B"/>
<path opacity="0.991" fill-rule="evenodd" clip-rule="evenodd" d="M475.5 71.5C481.159 80.1432 486.326 89.1432 491 98.5C491.918 101.598 492.418 104.765 492.5 108C491.248 114.488 490.415 120.988 490 127.5C490.725 129.949 491.725 132.283 493 134.5C499.693 139.886 503.193 146.886 503.5 155.5C499.007 157.572 494.34 159.406 489.5 161C476.85 163.174 467.517 158.674 461.5 147.5C463.694 140.363 466.028 133.363 468.5 126.5C471.559 126.203 474.059 124.87 476 122.5C478.139 115.897 479.973 109.23 481.5 102.5C480.612 93.5968 476.279 91.2635 468.5 95.5C465.21 92.2441 463.543 88.2441 463.5 83.5C471.153 83.1808 475.153 79.1808 475.5 71.5Z" fill="#6E5D76"/>
<path fill-rule="evenodd" clip-rule="evenodd" d="M246.5 78.5C247.209 79.404 248.209 79.7373 249.5 79.5C246.235 83.694 243.735 88.3606 242 93.5C240.82 102.45 240.153 111.45 240 120.5C238 125.167 236 129.833 234 134.5C233.333 141.5 233.333 148.5 234 155.5C235.808 168.475 237.475 181.475 239 194.5C244.801 216.781 257.301 234.115 276.5 246.5C281.56 243.307 286.227 239.64 290.5 235.5C292.118 240.693 294.118 245.693 296.5 250.5C286.473 260.86 276.473 271.193 266.5 281.5C258.833 281.5 251.167 281.5 243.5 281.5C248.174 272.468 250.507 262.802 250.5 252.5C236.453 250.977 224.786 244.977 215.5 234.5C200.718 219.256 192.718 200.923 191.5 179.5C189.521 165.609 188.188 151.609 187.5 137.5C189.451 130.934 191.951 124.6 195 118.5C191.826 79.1839 208.993 65.8506 246.5 78.5Z" fill="#FEAA7B"/>
<path fill-rule="evenodd" clip-rule="evenodd" d="M318.5 137.5C318.286 151.564 317.286 165.564 315.5 179.5C313.357 200.929 305.024 219.596 290.5 235.5C286.227 239.64 281.56 243.307 276.5 246.5C257.301 234.115 244.801 216.781 239 194.5C237.475 181.475 235.808 168.475 234 155.5C233.333 148.5 233.333 141.5 234 134.5C236 129.833 238 125.167 240 120.5C240.153 111.45 240.82 102.45 242 93.5C243.735 88.3606 246.235 83.694 249.5 79.5C252.85 79.665 256.183 79.4983 259.5 79C298.128 65.9099 315.628 79.7432 312 120.5C315.247 125.739 317.414 131.405 318.5 137.5Z" fill="#FEC6AA"/>
<path fill-rule="evenodd" clip-rule="evenodd" d="M405.5 75.5C407.607 74.5318 409.941 74.1984 412.5 74.5C430.275 73.3449 447.275 76.3449 463.5 83.5C463.543 88.2441 465.21 92.2441 468.5 95.5C469.694 105.821 469.694 116.155 468.5 126.5C466.028 133.363 463.694 140.363 461.5 147.5C457.94 155.621 453.607 163.288 448.5 170.5C444.712 173.899 440.712 177.066 436.5 180C430.633 177.846 425.467 174.346 421 169.5C405.123 148.53 398.123 124.863 400 98.5C400.607 94.619 402.274 91.2856 405 88.5C405.377 84.9813 405.877 81.4813 406.5 78C406.472 76.9302 406.139 76.0968 405.5 75.5Z" fill="#FEC6AA"/>
<path fill-rule="evenodd" clip-rule="evenodd" d="M364.5 73.5C365.719 76.2908 367.052 79.1241 368.5 82C371.79 83.7348 375.123 83.9015 378.5 82.5C378.662 84.5273 378.495 86.5273 378 88.5C376.295 90.5766 375.128 92.91 374.5 95.5C366.655 91.1757 361.988 93.3424 360.5 102C361.936 108.97 363.77 115.804 366 122.5C367.715 125.397 370.215 126.731 373.5 126.5C377.45 142.4 384.117 157.067 393.5 170.5C391.998 174.842 389.831 178.842 387 182.5C383.6 185.414 380.1 188.08 376.5 190.5C368.104 195.031 359.437 199.031 350.5 202.5C348.326 198.818 346.826 194.818 346 190.5C346.871 180.495 344.871 171.161 340 162.5C337.591 155.516 338.258 148.849 342 142.5C346.586 138.327 349.919 133.327 352 127.5C350.371 118.953 349.704 110.286 350 101.5C351 98.8333 352 96.1667 353 93.5C357.11 86.9417 360.943 80.275 364.5 73.5Z" fill="#57425E"/>
<path fill-rule="evenodd" clip-rule="evenodd" d="M405.5 75.5C406.139 76.0968 406.472 76.9302 406.5 78C405.877 81.4813 405.377 84.9813 405 88.5C402.274 91.2856 400.607 94.619 400 98.5C398.123 124.863 405.123 148.53 421 169.5C425.467 174.346 430.633 177.846 436.5 180C440.712 177.066 444.712 173.899 448.5 170.5C450.924 179.259 456.257 185.593 464.5 189.5C462.142 204.989 459.142 220.322 455.5 235.5C441.14 239.757 426.474 241.757 411.5 241.5C411.5 241.167 411.5 240.833 411.5 240.5C417.916 222.781 420.916 204.448 420.5 185.5C415.131 184.822 410.131 182.988 405.5 180C401.625 176.619 397.625 173.453 393.5 170.5C384.117 157.067 377.45 142.4 373.5 126.5C373.241 120.833 372.908 115.166 372.5 109.5C372.423 104.681 373.089 100.015 374.5 95.5C375.128 92.91 376.295 90.5766 378 88.5C378.495 86.5273 378.662 84.5273 378.5 82.5C387.11 78.7764 396.11 76.4431 405.5 75.5Z" fill="#FEA97B"/>
<path fill-rule="evenodd" clip-rule="evenodd" d="M374.5 95.5C373.089 100.015 372.423 104.681 372.5 109.5C372.908 115.166 373.241 120.833 373.5 126.5C370.215 126.731 367.715 125.397 366 122.5C363.77 115.804 361.936 108.97 360.5 102C361.988 93.3424 366.655 91.1757 374.5 95.5Z" fill="#F89260"/>
<path fill-rule="evenodd" clip-rule="evenodd" d="M468.5 126.5C469.694 116.155 469.694 105.821 468.5 95.5C476.279 91.2635 480.612 93.5968 481.5 102.5C479.973 109.23 478.139 115.897 476 122.5C474.059 124.87 471.559 126.203 468.5 126.5Z" fill="#FCA87B"/>
<path opacity="0.974" fill-rule="evenodd" clip-rule="evenodd" d="M37.5 98.5C38.9046 108.747 39.9046 119.081 40.5 129.5C37.3484 130.041 34.8484 129.041 33 126.5C30.8285 119.32 28.6618 112.153 26.5 105C26.8586 102.454 27.8586 100.287 29.5 98.5C32.1667 97.1667 34.8333 97.1667 37.5 98.5Z" fill="#D0714C"/>
<path fill-rule="evenodd" clip-rule="evenodd" d="M141.5 98.5C144.305 101.246 145.139 104.579 144 108.5C141.425 114.315 139.425 120.315 138 126.5C136.266 128.451 134.099 129.451 131.5 129.5C131.737 130.791 131.404 131.791 130.5 132.5C130.5 132.167 130.5 131.833 130.5 131.5C131.951 120.474 133.284 109.474 134.5 98.5C136.726 97.2437 139.059 97.2437 141.5 98.5Z" fill="#E48C6C"/>
<path fill-rule="evenodd" clip-rule="evenodd" d="M130.5 131.5C130.5 131.833 130.5 132.167 130.5 132.5C128.862 146.771 123.195 159.104 113.5 169.5C110.375 172.965 106.708 175.632 102.5 177.5C90.1268 171.624 81.2935 162.291 76 149.5C72.3675 139.04 69.2008 128.707 66.5 118.5C66.5 117.833 66.8333 117.5 67.5 117.5C81.3307 113.12 94.9974 113.62 108.5 119C115.698 123.432 123.032 127.598 130.5 131.5Z" fill="#E9EEFE"/>
<path opacity="0.999" fill-rule="evenodd" clip-rule="evenodd" d="M66.5 118.5C69.2008 128.707 72.3675 139.04 76 149.5C81.2935 162.291 90.1268 171.624 102.5 177.5C98.0517 180.536 93.0517 182.202 87.5 182.5C75.7272 182.779 66.0605 178.445 58.5 169.5C51.2853 161.064 45.6186 151.731 41.5 141.5C41.1667 138.167 40.8333 134.833 40.5 131.5C49.4345 127.699 58.1012 123.366 66.5 118.5Z" fill="#D3DBF9"/>
<path fill-rule="evenodd" clip-rule="evenodd" d="M180.5 133.5C181.404 134.209 181.737 135.209 181.5 136.5C183.621 136.325 185.621 136.659 187.5 137.5C188.188 151.609 189.521 165.609 191.5 179.5C186.806 180.3 183.306 178.633 181 174.5C179.474 166.116 176.808 158.116 173 150.5C172.333 147.833 172.333 145.167 173 142.5C173.903 138.469 176.403 136.469 180.5 136.5C180.5 135.5 180.5 134.5 180.5 133.5Z" fill="#FB945F"/>
<path fill-rule="evenodd" clip-rule="evenodd" d="M326.5 136.5C329.642 136.799 331.809 138.466 333 141.5C333.696 145.905 333.363 150.239 332 154.5C328.93 161.27 326.596 168.27 325 175.5C322.477 178.288 319.31 179.621 315.5 179.5C317.286 165.564 318.286 151.564 318.5 137.5C321.054 136.612 323.721 136.279 326.5 136.5Z" fill="#FEAA7B"/>
<path opacity="0.976" fill-rule="evenodd" clip-rule="evenodd" d="M41.5 141.5C45.6186 151.731 51.2853 161.064 58.5 169.5C57.6366 172.923 56.4699 176.256 55 179.5C53.9243 182.079 52.091 183.746 49.5 184.5C43.9045 185.79 38.5711 187.957 33.5 191C32.926 192.919 32.5926 194.753 32.5 196.5C27.101 198.3 21.7676 200.3 16.5 202.5C21.9063 180.943 30.2396 160.61 41.5 141.5Z" fill="#FDDC41"/>
<path opacity="0.993" fill-rule="evenodd" clip-rule="evenodd" d="M461.5 147.5C467.517 158.674 476.85 163.174 489.5 161C494.34 159.406 499.007 157.572 503.5 155.5C502.617 161.983 500.451 167.983 497 173.5C496.84 180.563 496.173 187.563 495 194.5C493.726 197.391 492.226 200.058 490.5 202.5C481.271 199.219 472.604 194.886 464.5 189.5C456.257 185.593 450.924 179.259 448.5 170.5C453.607 163.288 457.94 155.621 461.5 147.5Z" fill="#56415E"/>
<path fill-rule="evenodd" clip-rule="evenodd" d="M58.5 169.5C66.0605 178.445 75.7272 182.779 87.5 182.5C86.6444 196.898 82.4777 210.232 75 222.5C74.2411 224.063 73.0744 225.063 71.5 225.5C61.833 213.171 54.4997 199.504 49.5 184.5C52.091 183.746 53.9243 182.079 55 179.5C56.4699 176.256 57.6366 172.923 58.5 169.5Z" fill="#D0714B"/>
<path fill-rule="evenodd" clip-rule="evenodd" d="M393.5 170.5C397.625 173.453 401.625 176.619 405.5 180C410.131 182.988 415.131 184.822 420.5 185.5C420.916 204.448 417.916 222.781 411.5 240.5C402.984 239.73 394.651 238.063 386.5 235.5C385.528 234.601 384.862 233.434 384.5 232C381.894 218.135 379.227 204.302 376.5 190.5C380.1 188.08 383.6 185.414 387 182.5C389.831 178.842 391.998 174.842 393.5 170.5Z" fill="#FB9360"/>
<path fill-rule="evenodd" clip-rule="evenodd" d="M113.5 169.5C113.918 175.793 116.584 180.793 121.5 184.5C114.317 206.329 102.651 225.329 86.5 241.5C81.1396 236.806 76.1396 231.806 71.5 226.5C71.5 226.167 71.5 225.833 71.5 225.5C73.0744 225.063 74.2411 224.063 75 222.5C82.4777 210.232 86.6444 196.898 87.5 182.5C93.0517 182.202 98.0517 180.536 102.5 177.5C106.708 175.632 110.375 172.965 113.5 169.5Z" fill="#E48B6C"/>
<path fill-rule="evenodd" clip-rule="evenodd" d="M49.5 184.5C54.4997 199.504 61.833 213.171 71.5 225.5C71.5 225.833 71.5 226.167 71.5 226.5C62.1667 225.833 57.8333 230.167 58.5 239.5C57.8333 239.167 57.1667 238.833 56.5 238.5C47.5179 226.046 40.1846 212.546 34.5 198C34.1639 196.97 33.4972 196.47 32.5 196.5C32.5926 194.753 32.926 192.919 33.5 191C38.5711 187.957 43.9045 185.79 49.5 184.5Z" fill="#5171B4"/>
<path fill-rule="evenodd" clip-rule="evenodd" d="M121.5 184.5C127.258 186.211 132.925 188.211 138.5 190.5C138.5 192.167 138.5 193.833 138.5 195.5C129.911 218.087 116.911 237.754 99.5 254.5C99.631 253.761 99.4643 253.094 99 252.5C94.6398 248.968 90.4732 245.301 86.5 241.5C102.651 225.329 114.317 206.329 121.5 184.5Z" fill="#5071B5"/>
<path fill-rule="evenodd" clip-rule="evenodd" d="M376.5 190.5C379.227 204.302 381.894 218.135 384.5 232C384.862 233.434 385.528 234.601 386.5 235.5C385.371 237.628 385.204 239.961 386 242.5C390.153 262.434 393.987 282.434 397.5 302.5C393.551 298.854 389.218 295.687 384.5 293C365.486 286.988 346.819 280.154 328.5 272.5C327.772 270.265 326.439 268.432 324.5 267C318.805 263.157 313.138 259.323 307.5 255.5C307.158 254.662 306.492 254.328 305.5 254.5C307.346 245.116 309.512 235.783 312 226.5C314.66 220.333 318.827 215.499 324.5 212C333.446 209.299 342.113 206.132 350.5 202.5C359.437 199.031 368.104 195.031 376.5 190.5Z" fill="#4AB0F6"/>
<path opacity="0.993" fill-rule="evenodd" clip-rule="evenodd" d="M464.5 189.5C472.604 194.886 481.271 199.219 490.5 202.5C503.668 255.13 500.668 306.797 481.5 357.5C458.579 358.427 445.412 347.427 442 324.5C441.333 319.833 441.333 315.167 442 310.5C447.017 285.279 451.517 260.279 455.5 235.5C459.142 220.322 462.142 204.989 464.5 189.5Z" fill="#73C2F8"/>
<path opacity="0.985" fill-rule="evenodd" clip-rule="evenodd" d="M32.5 196.5C33.4972 196.47 34.1639 196.97 34.5 198C40.1846 212.546 47.5179 226.046 56.5 238.5C33.9436 238.789 17.6103 248.789 7.5 268.5C7.55597 246.048 10.556 224.048 16.5 202.5C21.7676 200.3 27.101 198.3 32.5 196.5Z" fill="#2A428C"/>
<path opacity="0.997" fill-rule="evenodd" clip-rule="evenodd" d="M138.5 195.5C154.391 202.279 170.391 208.779 186.5 215C188 216.5 189.5 218 191 219.5C195.562 230.076 198.728 241.076 200.5 252.5C200.5 253.5 200.5 254.5 200.5 255.5C199.127 255.343 197.793 255.51 196.5 256C191.442 260.057 186.108 263.724 180.5 267C179.035 268.774 177.702 270.608 176.5 272.5C160.275 279.743 143.608 285.91 126.5 291C112.105 296.728 103.605 307.228 101 322.5C91.277 361.949 85.1103 401.949 82.5 442.5C34.073 394.943 9.07297 336.943 7.5 268.5C17.6103 248.789 33.9436 238.789 56.5 238.5C57.1667 238.833 57.8333 239.167 58.5 239.5C65.9983 249.165 74.6649 257.665 84.5 265C86.1667 265.667 87.8333 265.667 89.5 265C93.0374 261.631 96.3707 258.131 99.5 254.5C116.911 237.754 129.911 218.087 138.5 195.5Z" fill="#3C58A0"/>
<path fill-rule="evenodd" clip-rule="evenodd" d="M71.4998 226.5C76.1394 231.806 81.1394 236.806 86.4998 241.5C90.473 245.301 94.6396 248.968 98.9998 252.5C99.4641 253.094 99.6308 253.761 99.4998 254.5C96.3705 258.131 93.0372 261.631 89.4998 265C87.8331 265.667 86.1665 265.667 84.4998 265C74.6647 257.665 65.9981 249.165 58.4998 239.5C57.8331 230.167 62.1665 225.833 71.4998 226.5Z" fill="#6288CA"/>
<path fill-rule="evenodd" clip-rule="evenodd" d="M386.5 235.5C394.651 238.063 402.984 239.73 411.5 240.5C411.5 240.833 411.5 241.167 411.5 241.5C412.919 262.094 417.085 282.094 424 301.5C426.398 307.129 429.898 311.963 434.5 316C436.345 317.128 438.345 317.628 440.5 317.5C434.714 350.37 428.38 383.037 421.5 415.5C418.437 382.016 412.603 349.016 404 316.5C402.079 311.661 399.912 306.994 397.5 302.5C393.987 282.434 390.153 262.434 386 242.5C385.204 239.961 385.371 237.628 386.5 235.5Z" fill="#209EF3"/>
<path fill-rule="evenodd" clip-rule="evenodd" d="M215.5 234.5C224.786 244.977 236.453 250.977 250.5 252.5C250.507 262.802 248.174 272.468 243.5 281.5C242.5 281.5 241.5 281.5 240.5 281.5C230.527 270.86 220.194 260.527 209.5 250.5C212.873 245.719 214.873 240.386 215.5 234.5Z" fill="#FB9460"/>
<path fill-rule="evenodd" clip-rule="evenodd" d="M209.5 250.5C220.194 260.527 230.527 270.86 240.5 281.5C240.651 287.713 238.984 293.38 235.5 298.5C232.527 302.14 229.194 305.473 225.5 308.5C225.167 308.5 224.833 308.5 224.5 308.5C215.64 291.121 207.64 273.454 200.5 255.5C200.5 254.5 200.5 253.5 200.5 252.5C201.117 252.611 201.617 252.944 202 253.5C203.995 251.253 206.495 250.253 209.5 250.5Z" fill="#75C2F7"/>
<path fill-rule="evenodd" clip-rule="evenodd" d="M296.5 250.5C300.36 250.054 303.36 251.387 305.5 254.5C306.492 254.328 307.158 254.662 307.5 255.5C305.856 255.286 304.356 255.62 303 256.5C296.747 274.994 288.914 292.66 279.5 309.5C279.649 308.448 279.483 307.448 279 306.5C275.934 303.604 273.101 300.604 270.5 297.5C269.62 294.738 268.454 292.071 267 289.5C266.503 286.854 266.336 284.187 266.5 281.5C276.473 271.193 286.473 260.86 296.5 250.5Z" fill="#75C3F8"/>
<path opacity="0.998" fill-rule="evenodd" clip-rule="evenodd" d="M200.5 255.5C207.64 273.454 215.64 291.121 224.5 308.5C209.422 302.206 199.756 306.873 195.5 322.5C197.39 322.297 198.89 322.963 200 324.5C200.245 330.121 199.411 335.621 197.5 341C197.625 342.627 198.125 344.127 199 345.5C217.598 351.449 233.598 361.449 247 375.5C247.5 420.832 247.667 466.165 247.5 511.5C242.167 511.5 236.833 511.5 231.5 511.5C203.562 508.849 176.896 501.515 151.5 489.5C153.491 462.52 154.158 435.187 153.5 407.5C168.042 421.251 183.375 422.085 199.5 410C210.948 396.904 212.448 382.737 204 367.5C188.031 350.185 171.198 349.185 153.5 364.5C154.7 342.459 166.033 328.626 187.5 323C183.5 322.667 179.5 322.333 175.5 322C173.667 321.5 172.5 320.333 172 318.5C172.688 303.096 174.188 287.762 176.5 272.5C177.702 270.608 179.035 268.774 180.5 267C186.108 263.724 191.442 260.057 196.5 256C197.793 255.51 199.127 255.343 200.5 255.5Z" fill="#BDC7F6"/>
<path fill-rule="evenodd" clip-rule="evenodd" d="M307.5 255.5C313.138 259.323 318.805 263.157 324.5 267C326.439 268.432 327.772 270.265 328.5 272.5C331.392 287.983 332.892 303.65 333 319.5C332.167 320.333 331.333 321.167 330.5 322C322.5 322.333 314.5 322.667 306.5 323C305.152 324.574 304.486 326.407 304.5 328.5C306.621 333.646 307.455 338.98 307 344.5C287.37 351.469 270.37 362.469 256 377.5C253.667 380.833 251.333 384.167 249 387.5C247.286 375.988 248.786 364.988 253.5 354.5C253.892 352.821 254.392 351.154 255 349.5C259.725 342.281 264.225 334.948 268.5 327.5C272.654 321.87 276.321 315.87 279.5 309.5C288.914 292.66 296.747 274.994 303 256.5C304.356 255.62 305.856 255.286 307.5 255.5Z" fill="#E8EEFE"/>
<path opacity="0.998" fill-rule="evenodd" clip-rule="evenodd" d="M328.5 272.5C346.819 280.154 365.486 286.988 384.5 293C389.218 295.687 393.551 298.854 397.5 302.5C399.912 306.994 402.079 311.661 404 316.5C412.603 349.016 418.437 382.016 421.5 415.5C422.995 424.75 423.662 434.084 423.5 443.5C411.334 455.332 398.001 465.665 383.5 474.5C383.951 449.79 383.451 425.123 382 400.5C380.063 390.776 375.23 382.943 367.5 377C362.577 376.045 359.077 377.879 357 382.5C356.169 418.002 356.336 453.336 357.5 488.5C331.472 500.84 304.138 508.507 275.5 511.5C266.167 511.5 256.833 511.5 247.5 511.5C247.667 466.165 247.5 420.832 247 375.5C233.598 361.449 217.598 351.449 199 345.5C198.125 344.127 197.625 342.627 197.5 341C199.411 335.621 200.245 330.121 200 324.5C198.89 322.963 197.39 322.297 195.5 322.5C199.756 306.873 209.422 302.206 224.5 308.5C224.833 308.5 225.167 308.5 225.5 308.5C228.497 315.838 232.497 322.505 237.5 328.5C242.866 337.248 248.199 345.915 253.5 354.5C248.786 364.988 247.286 375.988 249 387.5C251.333 384.167 253.667 380.833 256 377.5C270.37 362.469 287.37 351.469 307 344.5C307.455 338.98 306.621 333.646 304.5 328.5C304.486 326.407 305.152 324.574 306.5 323C314.5 322.667 322.5 322.333 330.5 322C331.333 321.167 332.167 320.333 333 319.5C332.892 303.65 331.392 287.983 328.5 272.5Z" fill="#D2DBFA"/>
<path opacity="0.999" fill-rule="evenodd" clip-rule="evenodd" d="M176.5 272.5C174.188 287.762 172.688 303.096 172 318.5C172.5 320.333 173.667 321.5 175.5 322C179.5 322.333 183.5 322.667 187.5 323C166.033 328.626 154.7 342.459 153.5 364.5C142.93 378.789 142.93 393.122 153.5 407.5C154.158 435.187 153.491 462.52 151.5 489.5C125.48 478.127 102.48 462.46 82.5 442.5C85.1103 401.949 91.277 361.949 101 322.5C103.605 307.228 112.105 296.728 126.5 291C143.608 285.91 160.275 279.743 176.5 272.5Z" fill="#A1B1EC"/>
<path fill-rule="evenodd" clip-rule="evenodd" d="M240.5 281.5C241.5 281.5 242.5 281.5 243.5 281.5C251.167 281.5 258.833 281.5 266.5 281.5C266.336 284.187 266.503 286.854 267 289.5C268.454 292.071 269.62 294.738 270.5 297.5C268.251 301.754 265.585 305.754 262.5 309.5C256.16 306.918 249.827 306.918 243.5 309.5C241.066 305.618 238.399 301.952 235.5 298.5C238.984 293.38 240.651 287.713 240.5 281.5Z" fill="#5372B5"/>
<path fill-rule="evenodd" clip-rule="evenodd" d="M270.5 297.5C273.101 300.604 275.934 303.604 279 306.5C279.483 307.448 279.649 308.448 279.5 309.5C276.321 315.87 272.654 321.87 268.5 327.5C267.473 321.085 265.473 315.085 262.5 309.5C265.585 305.754 268.251 301.754 270.5 297.5Z" fill="#4BB0F6"/>
<path fill-rule="evenodd" clip-rule="evenodd" d="M235.5 298.5C238.399 301.952 241.066 305.618 243.5 309.5C241.102 315.696 239.102 322.029 237.5 328.5C232.497 322.505 228.497 315.838 225.5 308.5C229.194 305.473 232.527 302.14 235.5 298.5Z" fill="#4BB0F6"/>
<path fill-rule="evenodd" clip-rule="evenodd" d="M262.5 309.5C265.473 315.085 267.473 321.085 268.5 327.5C264.225 334.948 259.725 342.281 255 349.5C254.392 351.154 253.892 352.821 253.5 354.5C248.199 345.915 242.866 337.248 237.5 328.5C239.102 322.029 241.102 315.696 243.5 309.5C249.827 306.918 256.16 306.918 262.5 309.5Z" fill="#3D59A1"/>
<path opacity="0.988" fill-rule="evenodd" clip-rule="evenodd" d="M455.5 235.5C451.517 260.279 447.017 285.279 442 310.5C441.333 315.167 441.333 319.833 442 324.5C445.412 347.427 458.579 358.427 481.5 357.5C468.121 390.282 448.787 418.949 423.5 443.5C423.662 434.084 422.995 424.75 421.5 415.5C428.38 383.037 434.714 350.37 440.5 317.5C438.345 317.628 436.345 317.128 434.5 316C429.898 311.963 426.398 307.129 424 301.5C417.085 282.094 412.919 262.094 411.5 241.5C426.474 241.757 441.14 239.757 455.5 235.5Z" fill="#49B1F6"/>
<path fill-rule="evenodd" clip-rule="evenodd" d="M153.5 407.5C142.93 393.122 142.93 378.789 153.5 364.5C171.198 349.185 188.031 350.185 204 367.5C212.448 382.737 210.948 396.904 199.5 410C183.375 422.085 168.042 421.251 153.5 407.5Z" fill="#E8EDFD"/>
<path fill-rule="evenodd" clip-rule="evenodd" d="M183.5 380.5C179.5 380.5 175.5 380.5 171.5 380.5C171.335 377.482 171.502 374.482 172 371.5C175.62 367.513 179.287 367.513 183 371.5C183.498 374.482 183.665 377.482 183.5 380.5Z" fill="#FE4558"/>
<path opacity="0.997" fill-rule="evenodd" clip-rule="evenodd" d="M383.5 474.5C375.479 480.18 366.812 484.847 357.5 488.5C356.336 453.336 356.169 418.002 357 382.5C359.077 377.879 362.577 376.045 367.5 377C375.23 382.943 380.063 390.776 382 400.5C383.451 425.123 383.951 449.79 383.5 474.5Z" fill="#BEC8F7"/>
<path fill-rule="evenodd" clip-rule="evenodd" d="M171.5 380.5C175.5 380.5 179.5 380.5 183.5 380.5C186.518 380.335 189.518 380.502 192.5 381C196.631 385.026 196.298 388.693 191.5 392C188.854 392.497 186.187 392.664 183.5 392.5C179.5 391.167 175.5 391.167 171.5 392.5C168.022 392.816 164.688 392.316 161.5 391C158.587 387.26 158.92 383.926 162.5 381C165.482 380.502 168.482 380.335 171.5 380.5Z" fill="#FE7488"/>
<path fill-rule="evenodd" clip-rule="evenodd" d="M183.5 392.5C183.929 396.257 183.263 399.757 181.5 403C178.54 405.052 175.707 404.886 173 402.5C171.684 399.312 171.184 395.978 171.5 392.5C175.5 391.167 179.5 391.167 183.5 392.5Z" fill="#FE495B"/>
</g>
<defs>
<clipPath id="clip0_118_1559">
<rect width="512" height="512" fill="white"/>
</clipPath>
</defs>
</svg>
