<svg width="69" height="68" viewBox="0 0 69 68" fill="none" xmlns="http://www.w3.org/2000/svg">
<path fill-rule="evenodd" clip-rule="evenodd" d="M9.74127 0.0205869C15.4006 -0.172107 20.7698 0.987914 25.8488 3.50061C28.6519 4.91543 31.4027 6.40686 34.1014 7.97492C39.0743 4.77625 44.4104 2.3568 50.1095 0.716591C54.0453 -0.273604 57.9563 -0.207325 61.8422 0.91545C65.7289 2.75226 67.8169 5.83457 68.1062 10.1624C68.3228 14.5631 67.5938 18.8053 65.9188 22.8893C64.4446 26.7662 62.5555 30.4119 60.2513 33.8265C60.0525 34.0916 59.8536 34.0916 59.6547 33.8265C58.2627 31.8379 56.8707 29.8493 55.4787 27.8608C57.6021 23.9102 58.8615 19.701 59.257 15.2333C59.164 12.7661 58.4017 10.5455 56.9701 8.5715C55.5348 7.24076 53.8445 6.41217 51.8993 6.08577C47.5868 5.80472 43.477 6.60016 39.57 8.47207C37.6968 9.3587 35.8741 10.3198 34.1014 11.3555C30.5269 9.1913 26.7154 7.56728 22.6671 6.48349C12.2497 4.57174 7.84158 8.84719 9.44299 19.3099C10.1758 22.2707 11.2031 25.1209 12.5253 27.8608C11.2007 29.7511 9.90812 31.6735 8.64755 33.6277C8.35046 33.8756 8.05217 33.8756 7.75269 33.6277C4.06526 28.2406 1.57953 22.3412 0.295499 15.9293C-0.243785 12.6953 -0.0449265 9.51355 0.892074 6.38406C2.66649 2.62987 5.61615 0.508705 9.74127 0.0205869Z" fill="#1070A1"/>
<path fill-rule="evenodd" clip-rule="evenodd" d="M32.2122 20.5036C38.0042 19.8993 41.7495 22.352 43.4477 27.8614C44.1455 33.6647 41.726 37.4098 36.1894 39.0969C30.3937 39.7977 26.6484 37.3782 24.9539 31.8386C24.2696 26.0438 26.6891 22.2655 32.2122 20.5036Z" fill="#B31E2B"/>
<path fill-rule="evenodd" clip-rule="evenodd" d="M12.7237 28.8555C12.9866 28.8217 13.2187 28.8879 13.4197 29.0544C18.5093 38.2203 25.3699 45.777 34.0016 51.7242C40.5377 47.2766 46.1389 41.8412 50.8051 35.4178C52.1476 33.3298 53.4402 31.2086 54.6829 29.0544C54.9261 28.8328 55.1911 28.7996 55.4783 28.9549C60.2513 34.9523 63.8637 41.6141 66.3161 48.9402C67.3865 52.4624 67.6516 56.0418 67.1115 59.6786C66.1504 64.0867 63.4658 66.7712 59.0577 67.7323C55.984 68.1921 52.9349 68.0594 49.9102 67.3346C45.8909 66.253 42.0464 64.7286 38.3765 62.7609C36.9431 61.8787 35.4847 61.0501 34.0016 60.2751C29.7917 63.0094 25.2842 65.1637 20.4792 66.738C16.0023 68.2553 11.4948 68.388 6.95684 67.1357C2.53621 64.86 0.481409 61.2143 0.792225 56.1985C0.974777 51.1933 2.20094 46.4537 4.47111 41.9802C6.79477 37.3104 9.54557 32.9355 12.7237 28.8555ZM10.3374 37.4064C15.365 44.1256 21.1319 50.1908 27.6381 55.602C23.9443 57.728 19.9671 58.9543 15.7066 59.2808C8.80304 58.7708 5.78695 55.0587 6.65855 48.1448C7.27222 44.3484 8.49839 40.7689 10.3374 37.4064ZM57.6657 37.4064C60.549 42.1118 61.7753 47.2159 61.3446 52.7185C60.0606 57.0944 57.1109 59.2818 52.4954 59.2808C48.1736 58.9466 44.1302 57.7202 40.365 55.602C46.9944 50.3322 52.7613 44.267 57.6657 37.4064Z" fill="#1BABF3"/>
</svg>
