<svg width="512" height="512" viewBox="0 0 512 512" fill="none" xmlns="http://www.w3.org/2000/svg">
<g clip-path="url(#clip0_118_1178)">
<path fill-rule="evenodd" clip-rule="evenodd" d="M242.5 -0.5C251.167 -0.5 259.833 -0.5 268.5 -0.5C270.715 0.2679 273.048 0.934566 275.5 1.5C245.146 11.0187 224.313 30.6854 213 60.5C210.195 70.3052 209.028 80.3052 209.5 90.5C199.534 91.8072 192.867 97.1405 189.5 106.5C186.15 106.335 182.817 106.502 179.5 107C175.697 108.655 172.03 110.489 168.5 112.5C164.311 85.6333 169.145 60.6333 183 37.5C184.842 35.1364 186.675 32.8031 188.5 30.5C202.573 13.4594 220.573 3.12609 242.5 -0.5Z" fill="#A44F3E"/>
<path opacity="0.999" fill-rule="evenodd" clip-rule="evenodd" d="M275.5 1.5C294.579 5.86158 310.246 15.5282 322.5 30.5C340.699 54.7809 347.365 82.1142 342.5 112.5C336.529 108.368 329.863 106.368 322.5 106.5C322.821 101.305 322.487 96.3054 321.5 91.5C318.097 75.5995 308.263 66.9328 292 65.5C264.337 73.3326 236.837 81.6659 209.5 90.5C209.028 80.3052 210.195 70.3052 213 60.5C224.313 30.6854 245.146 11.0187 275.5 1.5Z" fill="#BB5D4C"/>
<path opacity="0.996" fill-rule="evenodd" clip-rule="evenodd" d="M188.5 30.5C186.675 32.8031 184.842 35.1364 183 37.5C169.145 60.6333 164.311 85.6333 168.5 112.5C157.048 126.913 158.048 140.413 171.5 153C176.003 156.257 181.003 157.757 186.5 157.5C190.127 163.069 194.46 168.069 199.5 172.5C184.026 175.799 173.193 184.799 167 199.5C165.921 202.063 165.421 204.729 165.5 207.5C164.596 208.209 164.263 209.209 164.5 210.5C155.402 214.27 147.735 219.937 141.5 227.5C128.5 227.5 115.5 227.5 102.5 227.5C95.1591 227.334 87.8258 227.5 80.5 228C79.6667 228.833 78.8333 229.667 78 230.5C77.5014 234.152 77.3347 237.818 77.5 241.5C71.1579 241.334 64.8246 241.5 58.5 242C56.714 242.785 55.214 243.951 54 245.5C52.5568 254.392 52.0568 263.392 52.5 272.5C38.5 272.5 24.5 272.5 10.5 272.5C10.599 184.13 46.2656 114.296 117.5 63C139.406 48.3815 163.072 37.5482 188.5 30.5Z" fill="#C8EEFD"/>
<path opacity="0.996" fill-rule="evenodd" clip-rule="evenodd" d="M322.5 30.5C407.247 56.7469 463.414 112.08 491 196.5C498.423 221.295 501.59 246.628 500.5 272.5C464.833 272.5 429.167 272.5 393.5 272.5C391.735 254.975 385.068 239.642 373.5 226.5C374.708 200.4 363.375 182.233 339.5 172C335.855 171.005 332.188 170.172 328.5 169.5C328.5 165.5 328.5 161.5 328.5 157.5C344.868 153.115 352.034 142.449 350 125.5C347.982 120.785 345.482 116.451 342.5 112.5C347.365 82.1142 340.699 54.7809 322.5 30.5Z" fill="#C8EEFD"/>
<path fill-rule="evenodd" clip-rule="evenodd" d="M321.5 91.5C321.667 106.17 321.5 120.837 321 135.5C319.786 143.308 317.286 150.641 313.5 157.5C310.22 162.781 306.553 167.781 302.5 172.5C298.308 176.087 293.975 179.42 289.5 182.5C286.968 183.596 284.635 184.929 282.5 186.5C277.36 187.895 272.193 189.229 267 190.5C241.81 186.652 224.143 172.985 214 149.5C213 146.167 212 142.833 211 139.5C209.594 123.21 209.094 106.876 209.5 90.5C236.837 81.6659 264.337 73.3326 292 65.5C308.263 66.9328 318.097 75.5995 321.5 91.5Z" fill="#FECCBD"/>
<path fill-rule="evenodd" clip-rule="evenodd" d="M209.5 90.5C209.094 106.876 209.594 123.21 211 139.5C212 142.833 213 146.167 214 149.5C224.143 172.985 241.81 186.652 267 190.5C272.193 189.229 277.36 187.895 282.5 186.5C282.5 188.5 282.5 190.5 282.5 192.5C282.789 198.245 282.289 203.912 281 209.5C276.726 218.385 272.226 227.052 267.5 235.5C263.284 226.067 258.784 216.733 254 207.5C253.501 202.177 253.334 196.844 253.5 191.5C244.824 191.498 236.491 189.832 228.5 186.5C226.151 184.659 223.485 183.326 220.5 182.5C216.54 179.177 212.54 175.844 208.5 172.5C204.249 167.643 200.249 162.643 196.5 157.5C188.844 141.228 186.51 124.228 189.5 106.5C192.867 97.1405 199.534 91.8072 209.5 90.5Z" fill="#FEB09E"/>
<path fill-rule="evenodd" clip-rule="evenodd" d="M219.5 93.5C223.603 92.7691 227.103 93.7691 230 96.5C230.667 102.833 230.667 109.167 230 115.5C227.839 119.124 224.672 120.291 220.5 119C218.667 118.5 217.5 117.333 217 115.5C216.333 109.167 216.333 102.833 217 96.5C218.045 95.6266 218.878 94.6266 219.5 93.5Z" fill="#EC806B"/>
<path fill-rule="evenodd" clip-rule="evenodd" d="M283.5 93.5C287.603 92.7691 291.103 93.7691 294 96.5C294.667 102.833 294.667 109.167 294 115.5C291.839 119.124 288.672 120.291 284.5 119C282.667 118.5 281.5 117.333 281 115.5C280.333 109.167 280.333 102.833 281 96.5C282.045 95.6266 282.878 94.6266 283.5 93.5Z" fill="#EC806B"/>
<path fill-rule="evenodd" clip-rule="evenodd" d="M251.5 104.5C261.118 104.271 264.284 108.604 261 117.5C258.948 118.723 256.781 119.723 254.5 120.5C260.653 123.594 261.986 128.094 258.5 134C246.995 136.869 240.662 132.202 239.5 120C239.952 116.591 241.119 113.424 243 110.5C245.736 108.248 248.569 106.248 251.5 104.5Z" fill="#EC816C"/>
<path fill-rule="evenodd" clip-rule="evenodd" d="M189.5 106.5C186.51 124.228 188.844 141.228 196.5 157.5C193.167 157.5 189.833 157.5 186.5 157.5C181.003 157.757 176.003 156.257 171.5 153C158.048 140.413 157.048 126.913 168.5 112.5C172.03 110.489 175.697 108.655 179.5 107C182.817 106.502 186.15 106.335 189.5 106.5Z" fill="#F79580"/>
<path fill-rule="evenodd" clip-rule="evenodd" d="M321.5 91.5C322.487 96.3054 322.821 101.305 322.5 106.5C329.863 106.368 336.529 108.368 342.5 112.5C345.482 116.451 347.982 120.785 350 125.5C352.034 142.449 344.868 153.115 328.5 157.5C327.167 157.5 325.833 157.5 324.5 157.5C320.833 157.5 317.167 157.5 313.5 157.5C317.286 150.641 319.786 143.308 321 135.5C321.5 120.837 321.667 106.17 321.5 91.5Z" fill="#FEB09E"/>
<path fill-rule="evenodd" clip-rule="evenodd" d="M233.5 146.5C235.527 146.338 237.527 146.505 239.5 147C250.816 156.929 262.149 156.929 273.5 147C281.788 145.709 284.955 149.209 283 157.5C269.466 170.861 254.3 173.028 237.5 164C234.705 162.207 232.205 160.04 230 157.5C228.663 152.872 229.83 149.205 233.5 146.5Z" fill="#EC816C"/>
<path fill-rule="evenodd" clip-rule="evenodd" d="M186.5 157.5C189.833 157.5 193.167 157.5 196.5 157.5C200.249 162.643 204.249 167.643 208.5 172.5C205.5 172.5 202.5 172.5 199.5 172.5C194.46 168.069 190.127 163.069 186.5 157.5Z" fill="#BC5F4E"/>
<path fill-rule="evenodd" clip-rule="evenodd" d="M313.5 157.5C317.167 157.5 320.833 157.5 324.5 157.5C320.539 163.129 315.873 168.129 310.5 172.5C307.833 172.5 305.167 172.5 302.5 172.5C306.553 167.781 310.22 162.781 313.5 157.5Z" fill="#BB5E4D"/>
<path fill-rule="evenodd" clip-rule="evenodd" d="M324.5 157.5C325.833 157.5 327.167 157.5 328.5 157.5C328.5 161.5 328.5 165.5 328.5 169.5C327.323 171.679 326.323 174.013 325.5 176.5C324.883 176.611 324.383 176.944 324 177.5C319.446 175.707 314.946 174.041 310.5 172.5C315.873 168.129 320.539 163.129 324.5 157.5Z" fill="#1DE9A2"/>
<path fill-rule="evenodd" clip-rule="evenodd" d="M328.5 169.5C332.188 170.172 335.855 171.005 339.5 172C363.375 182.233 374.708 200.4 373.5 226.5C365.644 220.004 356.978 214.671 347.5 210.5C346.763 204.018 344.596 198.018 341 192.5C336.253 186.589 331.087 181.256 325.5 176.5C326.323 174.013 327.323 171.679 328.5 169.5Z" fill="#BA5E4D"/>
<path fill-rule="evenodd" clip-rule="evenodd" d="M199.5 172.5C202.5 172.5 205.5 172.5 208.5 172.5C212.54 175.844 216.54 179.177 220.5 182.5C215.5 182.5 210.5 182.5 205.5 182.5C190.641 183.03 180.974 190.363 176.5 204.5C175.91 205.766 175.41 207.099 175 208.5C174.5 219.495 174.333 230.495 174.5 241.5C173.5 241.5 172.5 241.5 171.5 241.5C171.666 237.486 171.499 233.486 171 229.5C169.556 227.845 167.722 227.178 165.5 227.5C165.5 220.833 165.5 214.167 165.5 207.5C165.421 204.729 165.921 202.063 167 199.5C173.193 184.799 184.026 175.799 199.5 172.5Z" fill="#415B5C"/>
<path fill-rule="evenodd" clip-rule="evenodd" d="M302.5 172.5C305.167 172.5 307.833 172.5 310.5 172.5C314.946 174.041 319.446 175.707 324 177.5C324.383 176.944 324.883 176.611 325.5 176.5C331.087 181.256 336.253 186.589 341 192.5C344.596 198.018 346.763 204.018 347.5 210.5C347.334 220.172 347.5 229.839 348 239.5C361.901 243.067 370.901 251.734 375 265.5C375.5 272.492 375.666 279.492 375.5 286.5C372.336 279.502 368.67 272.835 364.5 266.5C360.28 253.382 351.28 247.882 337.5 250C329.244 252.755 323.911 258.255 321.5 266.5C317.042 272.652 313.375 279.319 310.5 286.5C307.122 269.808 311.788 255.975 324.5 245C328.756 242.452 333.256 240.618 338 239.5C338.667 230.167 338.667 220.833 338 211.5C337.76 209.148 336.927 207.148 335.5 205.5C332.667 196 326.667 189.333 317.5 185.5C313.888 183.385 309.888 182.385 305.5 182.5C300.167 182.5 294.833 182.5 289.5 182.5C293.975 179.42 298.308 176.087 302.5 172.5Z" fill="#405A5A"/>
<path fill-rule="evenodd" clip-rule="evenodd" d="M205.5 182.5C210.5 182.5 215.5 182.5 220.5 182.5C223.485 183.326 226.151 184.659 228.5 186.5C228.5 188.5 228.5 190.5 228.5 192.5C222.54 195.629 217.707 199.962 214 205.5C213.5 253.499 213.333 301.499 213.5 349.5C208.167 340.167 202.833 330.833 197.5 321.5C197.667 296.831 197.5 272.164 197 247.5C195.749 244.619 193.583 242.786 190.5 242C185.177 241.501 179.844 241.334 174.5 241.5C174.333 230.495 174.5 219.495 175 208.5C175.41 207.099 175.91 205.766 176.5 204.5C183.25 201.961 189.917 199.128 196.5 196C199.722 191.618 202.722 187.118 205.5 182.5Z" fill="#F2FAFE"/>
<path fill-rule="evenodd" clip-rule="evenodd" d="M289.5 182.5C294.833 182.5 300.167 182.5 305.5 182.5C307.181 185.203 308.847 187.869 310.5 190.5C311.228 192.735 312.561 194.568 314.5 196C321.526 199.181 328.526 202.348 335.5 205.5C336.927 207.148 337.76 209.148 338 211.5C338.667 220.833 338.667 230.167 338 239.5C333.256 240.618 328.756 242.452 324.5 245C311.788 255.975 307.122 269.808 310.5 286.5C310.5 299.833 310.5 313.167 310.5 326.5C306.42 334.329 302.087 341.996 297.5 349.5C297.667 301.499 297.5 253.499 297 205.5C293.241 199.904 288.408 195.571 282.5 192.5C282.5 190.5 282.5 188.5 282.5 186.5C284.635 184.929 286.968 183.596 289.5 182.5Z" fill="#F2FAFD"/>
<path fill-rule="evenodd" clip-rule="evenodd" d="M205.5 182.5C202.722 187.118 199.722 191.618 196.5 196C189.917 199.128 183.25 201.961 176.5 204.5C180.974 190.363 190.641 183.03 205.5 182.5Z" fill="#C6ECFB"/>
<path fill-rule="evenodd" clip-rule="evenodd" d="M305.5 182.5C309.888 182.385 313.888 183.385 317.5 185.5C315.469 187.522 313.135 189.189 310.5 190.5C308.847 187.869 307.181 185.203 305.5 182.5Z" fill="#27E3A0"/>
<path fill-rule="evenodd" clip-rule="evenodd" d="M228.5 186.5C236.491 189.832 244.824 191.498 253.5 191.5C253.334 196.844 253.501 202.177 254 207.5C258.784 216.733 263.284 226.067 267.5 235.5C265.285 240.932 262.785 246.265 260 251.5C257 255.5 254 255.5 251 251.5C247.392 243.948 243.559 236.614 239.5 229.5C236.012 221.855 232.512 214.188 229 206.5C228.501 201.845 228.334 197.179 228.5 192.5C228.5 190.5 228.5 188.5 228.5 186.5Z" fill="#F79580"/>
<path fill-rule="evenodd" clip-rule="evenodd" d="M317.5 185.5C326.667 189.333 332.667 196 335.5 205.5C328.526 202.348 321.526 199.181 314.5 196C312.561 194.568 311.228 192.735 310.5 190.5C313.135 189.189 315.469 187.522 317.5 185.5Z" fill="#B95F4F"/>
<path fill-rule="evenodd" clip-rule="evenodd" d="M228.5 192.5C228.334 197.179 228.501 201.845 229 206.5C232.512 214.188 236.012 221.855 239.5 229.5C239.5 292.5 239.5 355.5 239.5 418.5C230.833 418.5 222.167 418.5 213.5 418.5C213.5 395.5 213.5 372.5 213.5 349.5C213.333 301.499 213.5 253.499 214 205.5C217.707 199.962 222.54 195.629 228.5 192.5Z" fill="#08D0FA"/>
<path fill-rule="evenodd" clip-rule="evenodd" d="M282.5 192.5C288.408 195.571 293.241 199.904 297 205.5C297.5 253.499 297.667 301.499 297.5 349.5C297.5 372.5 297.5 395.5 297.5 418.5C278.167 418.5 258.833 418.5 239.5 418.5C239.5 355.5 239.5 292.5 239.5 229.5C243.559 236.614 247.392 243.948 251 251.5C254 255.5 257 255.5 260 251.5C262.785 246.265 265.285 240.932 267.5 235.5C272.226 227.052 276.726 218.385 281 209.5C282.289 203.912 282.789 198.245 282.5 192.5Z" fill="#63DBFA"/>
<path fill-rule="evenodd" clip-rule="evenodd" d="M164.5 210.5C164.5 216.167 164.5 221.833 164.5 227.5C156.833 227.5 149.167 227.5 141.5 227.5C147.735 219.937 155.402 214.27 164.5 210.5Z" fill="#FEFEFF"/>
<path fill-rule="evenodd" clip-rule="evenodd" d="M347.5 210.5C356.978 214.671 365.644 220.004 373.5 226.5C385.068 239.642 391.735 254.975 393.5 272.5C396.943 295.49 400.276 318.49 403.5 341.5C394.167 341.5 384.833 341.5 375.5 341.5C375.5 323.167 375.5 304.833 375.5 286.5C375.666 279.492 375.5 272.492 375 265.5C370.901 251.734 361.901 243.067 348 239.5C347.5 229.839 347.334 220.172 347.5 210.5Z" fill="#FDFDFD"/>
<path fill-rule="evenodd" clip-rule="evenodd" d="M102.5 227.5C99.9251 229.845 98.9251 232.845 99.5001 236.5C91.8436 237.312 89.8436 241.145 93.5001 248C95.3454 249.128 97.3454 249.628 99.5001 249.5C98.8579 253.475 99.8579 256.808 102.5 259.5C96.5001 259.5 90.5001 259.5 84.5001 259.5C81.6756 259.919 79.5089 258.919 78.0001 256.5C77.5008 251.511 77.3342 246.511 77.5001 241.5C77.3348 237.818 77.5015 234.152 78.0001 230.5C78.8334 229.667 79.6668 228.833 80.5001 228C87.8259 227.5 95.1592 227.334 102.5 227.5Z" fill="#A7D3D8"/>
<path fill-rule="evenodd" clip-rule="evenodd" d="M165.5 207.5C165.5 214.167 165.5 220.833 165.5 227.5C167.722 227.178 169.556 227.845 171 229.5C171.499 233.486 171.666 237.486 171.5 241.5C171.666 246.844 171.499 252.177 171 257.5C170.25 258.126 169.416 258.626 168.5 259C146.503 259.5 124.503 259.667 102.5 259.5C99.8577 256.808 98.8577 253.475 99.4999 249.5C104.477 247.151 105.644 243.485 103 238.5C101.887 237.695 100.721 237.028 99.4999 236.5C98.9249 232.845 99.9249 229.845 102.5 227.5C115.5 227.5 128.5 227.5 141.5 227.5C149.167 227.5 156.833 227.5 164.5 227.5C164.5 221.833 164.5 216.167 164.5 210.5C164.263 209.209 164.596 208.209 165.5 207.5Z" fill="#CAE4E7"/>
<path fill-rule="evenodd" clip-rule="evenodd" d="M99.4998 236.5C100.721 237.028 101.887 237.695 103 238.5C105.644 243.485 104.477 247.151 99.4998 249.5C97.3451 249.628 95.3451 249.128 93.4998 248C89.8433 241.145 91.8433 237.312 99.4998 236.5Z" fill="#FBFDFD"/>
<path fill-rule="evenodd" clip-rule="evenodd" d="M149.5 236.5C157.845 236.691 160.178 240.524 156.5 248C148.95 250.984 145.45 248.484 146 240.5C146.69 238.65 147.856 237.316 149.5 236.5Z" fill="#FCFDFD"/>
<path fill-rule="evenodd" clip-rule="evenodd" d="M77.4999 241.5C77.334 246.511 77.5006 251.511 77.9999 256.5C79.5087 258.919 81.6754 259.919 84.4999 259.5C84.3332 318.501 84.4999 377.501 84.9999 436.5C85.9667 439.621 87.8 441.954 90.4999 443.5C88.8332 443.5 87.1666 443.5 85.4999 443.5C76.1606 443.666 66.8273 443.5 57.4999 443C55.6666 441.833 54.1666 440.333 52.9999 438.5C52.5001 429.84 52.3335 421.173 52.4999 412.5C56.4999 412.5 60.4999 412.5 64.4999 412.5C73.8957 412.624 77.3957 408.291 74.9999 399.5C73.9263 398.382 72.7597 397.382 71.4999 396.5C77.9919 391.253 77.9919 386.086 71.4999 381C78.0168 375.624 78.0168 370.29 71.4999 365C76.3323 361.83 77.4989 357.664 74.9999 352.5C73.5122 350.84 71.6789 349.84 69.4999 349.5C64.0246 348.511 58.3579 348.178 52.4999 348.5C52.4999 323.167 52.4999 297.833 52.4999 272.5C52.0567 263.392 52.5567 254.392 53.9999 245.5C55.2139 243.951 56.7139 242.785 58.4999 242C64.8245 241.5 71.1578 241.334 77.4999 241.5Z" fill="#0BA9F0"/>
<path fill-rule="evenodd" clip-rule="evenodd" d="M171.5 241.5C172.5 241.5 173.5 241.5 174.5 241.5C179.844 241.334 185.177 241.501 190.5 242C193.583 242.786 195.749 244.619 197 247.5C197.5 272.164 197.667 296.831 197.5 321.5C197.5 353.833 197.5 386.167 197.5 418.5C197.666 424.176 197.499 429.843 197 435.5C196.5 440 194 442.5 189.5 443C177.838 443.5 166.171 443.667 154.5 443.5C133.167 443.5 111.833 443.5 90.5 443.5C87.8001 441.954 85.9668 439.621 85 436.5C84.5 377.501 84.3333 318.501 84.5 259.5C90.5 259.5 96.5 259.5 102.5 259.5C124.503 259.667 146.503 259.5 168.5 259C169.416 258.626 170.25 258.126 171 257.5C171.499 252.177 171.666 246.844 171.5 241.5Z" fill="#01C0F9"/>
<path fill-rule="evenodd" clip-rule="evenodd" d="M364.5 266.5C364.631 267.239 364.464 267.906 364 268.5C350 259.167 336 259.167 322 268.5C321.536 267.906 321.369 267.239 321.5 266.5C323.911 258.255 329.244 252.755 337.5 250C351.28 247.882 360.28 253.382 364.5 266.5Z" fill="#F8FAFB"/>
<path fill-rule="evenodd" clip-rule="evenodd" d="M364.5 266.5C368.67 272.835 372.336 279.502 375.5 286.5C375.5 304.833 375.5 323.167 375.5 341.5C372.167 341.5 368.833 341.5 365.5 341.5C365.667 323.497 365.5 305.497 365 287.5C359.648 274.072 349.814 268.905 335.5 272C328.268 274.899 323.435 280.066 321 287.5C320.5 307.164 320.333 326.831 320.5 346.5C323.579 346.26 326.579 346.593 329.5 347.5C332.167 350.167 332.167 352.833 329.5 355.5C324.22 356.618 318.887 356.784 313.5 356C312.692 355.692 312.025 355.192 311.5 354.5C310.527 345.22 310.193 335.887 310.5 326.5C310.5 313.167 310.5 299.833 310.5 286.5C313.375 279.319 317.042 272.652 321.5 266.5C321.369 267.239 321.536 267.906 322 268.5C336 259.167 350 259.167 364 268.5C364.464 267.906 364.631 267.239 364.5 266.5Z" fill="#A8D2D7"/>
<path fill-rule="evenodd" clip-rule="evenodd" d="M365.5 341.5C360.821 341.334 356.155 341.501 351.5 342C351 342.5 350.5 343 350 343.5C349.333 348.833 349.333 354.167 350 359.5C351.444 361.155 353.278 361.822 355.5 361.5C355.5 380.5 355.5 399.5 355.5 418.5C336.167 418.5 316.833 418.5 297.5 418.5C297.5 395.5 297.5 372.5 297.5 349.5C302.087 341.996 306.42 334.329 310.5 326.5C310.193 335.887 310.527 345.22 311.5 354.5C312.025 355.192 312.692 355.692 313.5 356C318.887 356.784 324.22 356.618 329.5 355.5C332.167 352.833 332.167 350.167 329.5 347.5C326.579 346.593 323.579 346.26 320.5 346.5C320.333 326.831 320.5 307.164 321 287.5C323.435 280.066 328.268 274.899 335.5 272C349.814 268.905 359.648 274.072 365 287.5C365.5 305.497 365.667 323.497 365.5 341.5Z" fill="#FEFEFE"/>
<path fill-rule="evenodd" clip-rule="evenodd" d="M10.5 272.5C24.5 272.5 38.5 272.5 52.5 272.5C52.5 297.833 52.5 323.167 52.5 348.5C58.358 348.178 64.0247 348.511 69.5 349.5C67.5 349.5 65.5 349.5 63.5 349.5C42.1667 346.167 33.1667 355.167 36.5 376.5C19.3904 344.062 10.7237 309.395 10.5 272.5Z" fill="#DEF5FC"/>
<path fill-rule="evenodd" clip-rule="evenodd" d="M393.5 272.5C429.167 272.5 464.833 272.5 500.5 272.5C499.205 327.063 481.871 375.73 448.5 418.5C440.833 418.5 433.167 418.5 425.5 418.5C426.653 416.193 427.82 413.86 429 411.5C429.667 398.5 429.667 385.5 429 372.5C426.947 366.28 422.78 362.28 416.5 360.5C413.609 359.597 410.609 359.264 407.5 359.5C407.5 357.833 407.5 356.167 407.5 354.5C407.665 351.15 407.498 347.817 407 344.5C406.578 342.574 405.411 341.574 403.5 341.5C400.276 318.49 396.943 295.49 393.5 272.5Z" fill="#DEF5FC"/>
<path fill-rule="evenodd" clip-rule="evenodd" d="M197.5 321.5C202.833 330.833 208.167 340.167 213.5 349.5C213.5 372.5 213.5 395.5 213.5 418.5C208.167 418.5 202.833 418.5 197.5 418.5C197.5 386.167 197.5 353.833 197.5 321.5Z" fill="#FEFEFF"/>
<path fill-rule="evenodd" clip-rule="evenodd" d="M365.5 341.5C365.335 345.182 365.501 348.848 366 352.5C366.5 353 367 353.5 367.5 354C380.829 354.5 394.163 354.667 407.5 354.5C407.5 356.167 407.5 357.833 407.5 359.5C403.486 359.334 399.486 359.501 395.5 360C394.016 360.662 392.683 361.496 391.5 362.5C384.352 361.508 377.019 361.175 369.5 361.5C364.833 361.5 360.167 361.5 355.5 361.5C353.278 361.822 351.444 361.155 350 359.5C349.333 354.167 349.333 348.833 350 343.5C350.5 343 351 342.5 351.5 342C356.155 341.501 360.821 341.334 365.5 341.5Z" fill="#DEEBF0"/>
<path fill-rule="evenodd" clip-rule="evenodd" d="M365.5 341.5C368.833 341.5 372.167 341.5 375.5 341.5C384.833 341.5 394.167 341.5 403.5 341.5C405.411 341.574 406.578 342.574 407 344.5C407.498 347.817 407.665 351.15 407.5 354.5C394.163 354.667 380.829 354.5 367.5 354C367 353.5 366.5 353 366 352.5C365.501 348.848 365.335 345.182 365.5 341.5Z" fill="#F1FAFE"/>
<path fill-rule="evenodd" clip-rule="evenodd" d="M63.4999 349.5C58.7932 351.715 55.6265 355.382 53.9999 360.5C53.0698 374.889 53.4031 389.222 54.9999 403.5C57.4056 407.408 60.5723 410.408 64.4999 412.5C60.4999 412.5 56.4999 412.5 52.4999 412.5C44.9806 412.823 39.8139 409.49 36.9999 402.5C36.5001 393.84 36.3335 385.173 36.4999 376.5C33.1666 355.167 42.1666 346.167 63.4999 349.5Z" fill="#FEB09E"/>
<path fill-rule="evenodd" clip-rule="evenodd" d="M63.4999 349.5C65.4999 349.5 67.4999 349.5 69.4999 349.5C71.6789 349.84 73.5122 350.84 74.9999 352.5C77.4989 357.664 76.3323 361.83 71.4999 365C78.0168 370.29 78.0168 375.624 71.4999 381C77.9919 386.086 77.9919 391.253 71.4999 396.5C72.7597 397.382 73.9263 398.382 74.9999 399.5C77.3957 408.291 73.8957 412.624 64.4999 412.5C60.5723 410.408 57.4056 407.408 54.9999 403.5C53.4031 389.222 53.0698 374.889 53.9999 360.5C55.6265 355.382 58.7932 351.715 63.4999 349.5Z" fill="#FDCDBF"/>
<path fill-rule="evenodd" clip-rule="evenodd" d="M407.5 359.5C410.609 359.264 413.609 359.597 416.5 360.5C412.189 362.647 409.022 365.98 407 370.5C406.333 384.167 406.333 397.833 407 411.5C407.471 413.246 408.138 414.913 409 416.5C411.422 418.75 413.589 421.083 415.5 423.5C408.492 423.666 401.492 423.5 394.5 423C392.34 422.004 390.673 420.504 389.5 418.5C389.279 415.721 389.612 413.054 390.5 410.5C391.23 409.288 392.23 408.288 393.5 407.5C388.201 402.296 388.201 397.13 393.5 392C388.235 386.593 388.235 381.26 393.5 376C391.93 374.603 390.596 373.103 389.5 371.5C389.065 368.162 389.732 365.162 391.5 362.5C392.683 361.496 394.016 360.662 395.5 360C399.486 359.501 403.486 359.334 407.5 359.5Z" fill="#FEB19F"/>
<path fill-rule="evenodd" clip-rule="evenodd" d="M355.5 361.5C360.167 361.5 364.833 361.5 369.5 361.5C369.5 380.5 369.5 399.5 369.5 418.5C364.833 418.5 360.167 418.5 355.5 418.5C355.5 399.5 355.5 380.5 355.5 361.5Z" fill="#08A9F1"/>
<path fill-rule="evenodd" clip-rule="evenodd" d="M369.5 361.5C377.019 361.175 384.352 361.508 391.5 362.5C389.732 365.162 389.065 368.162 389.5 371.5C385.366 372.485 381.032 372.818 376.5 372.5C376.333 384.838 376.5 397.171 377 409.5C381.401 410.467 385.901 410.8 390.5 410.5C389.612 413.054 389.279 415.721 389.5 418.5C382.833 418.5 376.167 418.5 369.5 418.5C369.5 399.5 369.5 380.5 369.5 361.5Z" fill="#27C2F9"/>
<path fill-rule="evenodd" clip-rule="evenodd" d="M416.5 360.5C422.78 362.28 426.947 366.28 429 372.5C429.667 385.5 429.667 398.5 429 411.5C427.82 413.86 426.653 416.193 425.5 418.5C422.45 420.692 419.117 422.358 415.5 423.5C413.589 421.083 411.422 418.75 409 416.5C408.138 414.913 407.471 413.246 407 411.5C406.333 397.833 406.333 384.167 407 370.5C409.022 365.98 412.189 362.647 416.5 360.5Z" fill="#FECEBF"/>
<path fill-rule="evenodd" clip-rule="evenodd" d="M389.5 371.5C390.596 373.103 391.93 374.603 393.5 376C388.235 381.26 388.235 386.593 393.5 392C388.201 397.13 388.201 402.296 393.5 407.5C392.23 408.288 391.23 409.288 390.5 410.5C385.901 410.8 381.401 410.467 377 409.5C376.5 397.171 376.333 384.838 376.5 372.5C381.032 372.818 385.366 372.485 389.5 371.5Z" fill="#FEFDFD"/>
<path opacity="0.998" fill-rule="evenodd" clip-rule="evenodd" d="M197.5 418.5C202.833 418.5 208.167 418.5 213.5 418.5C222.167 418.5 230.833 418.5 239.5 418.5C258.833 418.5 278.167 418.5 297.5 418.5C316.833 418.5 336.167 418.5 355.5 418.5C360.167 418.5 364.833 418.5 369.5 418.5C376.167 418.5 382.833 418.5 389.5 418.5C390.673 420.504 392.34 422.004 394.5 423C401.492 423.5 408.492 423.666 415.5 423.5C419.117 422.358 422.45 420.692 425.5 418.5C433.167 418.5 440.833 418.5 448.5 418.5C436.5 433.833 422.833 447.5 407.5 459.5C407.414 458.504 407.748 457.671 408.5 457C327.833 456.667 247.167 456.333 166.5 456C159.603 454.603 155.603 450.436 154.5 443.5C166.171 443.667 177.838 443.5 189.5 443C194 442.5 196.5 440 197 435.5C197.499 429.843 197.666 424.176 197.5 418.5Z" fill="#00F1A6"/>
<path fill-rule="evenodd" clip-rule="evenodd" d="M85.5 443.5C87.1667 443.5 88.8333 443.5 90.5 443.5C111.833 443.5 133.167 443.5 154.5 443.5C155.603 450.436 159.603 454.603 166.5 456C247.167 456.333 327.833 456.667 408.5 457C407.748 457.671 407.414 458.504 407.5 459.5C369.158 489.173 325.825 506.506 277.5 511.5C262.833 511.5 248.167 511.5 233.5 511.5C176.313 505.568 126.98 482.901 85.5 443.5Z" fill="#05E39C"/>
</g>
<defs>
<clipPath id="clip0_118_1178">
<rect width="512" height="512" fill="white"/>
</clipPath>
</defs>
</svg>
